<?xml version="1.0" standalone="no"?>
<!DOCTYPE svg PUBLIC "-//W3C//DTD SVG 1.1//EN" "http://www.w3.org/Graphics/SVG/1.1/DTD/svg11.dtd" >
<svg xmlns="http://www.w3.org/2000/svg">
<metadata></metadata>
<defs>
<font id="captain_howdyregular" horiz-adv-x="1751" >
<font-face units-per-em="2048" ascent="1638" descent="-410" />
<missing-glyph horiz-adv-x="792" />
<glyph horiz-adv-x="2048" />
<glyph horiz-adv-x="2048" />
<glyph unicode="&#xd;" horiz-adv-x="792" />
<glyph unicode=" "  horiz-adv-x="792" />
<glyph unicode="&#x09;" horiz-adv-x="792" />
<glyph unicode="&#xa0;" horiz-adv-x="792" />
<glyph unicode="!" horiz-adv-x="790" d="M102 1487q33 10 78 10q143 0 221 -106q94 106 283 106q25 0 51 -2v-139q-125 -25 -135 -158l-127 -696l-96 2l-129 655q-33 190 -144 184zM225 184q0 84 59.5 143.5t143.5 59.5q86 0 145.5 -59.5t59.5 -143.5t-59.5 -143t-145.5 -59q-84 0 -143.5 59t-59.5 143zM279 1333 q47 -35 69 -198l68 -461l-21 502q-2 45 -36.5 97t-79.5 60zM299 170q0 -68 70 -107q-33 29 -33 78q0 25 8 47q34 102 100 131q-113 6 -143 -118q-2 -16 -2 -31z" />
<glyph unicode="&#x22;" horiz-adv-x="720" d="M51 1542h250l-41 -430h-168zM117 1499l26 -344h23l-14 344h-35zM420 1542h250l-41 -430h-168zM486 1499l26 -344h23l-14 344h-35z" />
<glyph unicode="$" horiz-adv-x="1044" d="M33 428q-2 61 41 107.5t104 46.5q53 0 102.5 -42t49.5 -96q0 -53 -66 -98q18 -25 88 -43q57 -14 103 -14q98 0 168 41q84 49 84 141q0 145 -205 158q-446 29 -447 315q0 123 140 203q113 66 266 82v145h125v-145q156 -12 260 -64q139 -72 139 -198q0 -61 -38 -102.5 t-99 -41.5q-53 0 -96 37t-43 88q0 55 63 101q-72 49 -209 49q-80 0 -155 -45q-86 -51 -86 -127q0 -98 167 -144q98 -25 211 -24q123 -2 211 -68q99 -73 99 -188q0 -143 -140 -240q-119 -82 -284 -104v-150h-125v146q-160 10 -275 65q-154 74 -153 209zM131 915q0 -53 37 -96 q26 -31 108 -88q-96 106 -96 199q0 70 64 174q-113 -70 -113 -189zM690 678q96 -106 96 -199q0 -70 -65 -172q115 68 115 187q0 53 -37 96q-27 31 -109 88z" />
<glyph unicode="&#x26;" horiz-adv-x="1632" d="M14 469q0 168 129 307q96 104 228 162l-88 111q-31 53 -31 114q0 135 130 246t296 104q160 -4 268 -81q84 -61 127 -156q33 -72 27 -109l-4 -82q-6 -66 -43 -120q-49 -78 -152 -148l303 -366q102 133 158 292l164 -63q-76 -219 -197 -373q78 -100 141 -100q43 0 60 55 q23 -57 22 -112q0 -86 -75.5 -145.5t-163.5 -59.5q-131 0 -256 129q-172 -92 -365 -92q-279 0 -467 118q-211 135 -211 369zM152 436q0 -63 54 -144t111 -99q-111 133 -114 274q-2 158 71 272q-123 -111 -122 -303zM391 1130q0 -66 53 -135l598 -764q35 -45 91 -88 q63 -49 108 -55q-45 18 -125 121l-616 786q-100 129 -94 189q-14 -23 -15 -54zM459 428q0 -160 213 -242q43 -16 92 -16q82 0 174 47l-344 438q-123 -82 -131 -178q-4 -27 -4 -49zM545 1292q0 -39 41 -90l131 -162q51 41 67 58q39 37 50.5 75.5t11.5 71.5q0 125 -154 148 q-147 -20 -147 -101z" />
<glyph unicode="'" horiz-adv-x="352" d="M51 1542h250l-41 -430h-168zM117 1499l26 -344h23l-14 344h-35z" />
<glyph unicode="(" horiz-adv-x="585" d="M88 735q0 186 14 301q20 172 80 297q141 303 447 326q-252 -188 -250 -612q-33 -342 0 -615q0 -370 250 -612q-305 23 -447 325q-59 125 -80 297q-14 113 -14 293zM197 496q0 -307 135 -443q-57 76 -80 279q-39 344 -4 764q18 229 110 360q-168 -143 -161 -506v-454z" />
<glyph unicode=")" horiz-adv-x="577" d="M66 -180q252 188 249 612q33 342 0 615q0 373 -249 612q307 -23 446 -326q59 -125 80 -297q14 -113 14 -291q0 -188 -14 -303q-20 -172 -80 -297q-139 -303 -446 -325zM336 23q170 143 162 505l2 455q0 307 -138 442q57 -74 80 -278q39 -344 4 -764q-18 -229 -110 -360z " />
<glyph unicode="*" horiz-adv-x="1206" d="M57 1004q0 100 82 145l350 -129l-129 348q80 80 150 80q37 0 84 -18l63 -375l242 293q84 -14 121 -45q49 -39 51 -125l-283 -234l359 -61q8 -47 8 -78q0 -76 -70 -156l-348 129l64 -168q57 -150 61 -170q-63 -84 -149 -84q-45 0 -84 23l-62 366l-241 -292 q-63 2 -113.5 50t-56.5 122l280 231l-358 59q-20 45 -21 89zM137 1059l322 -101l2 15l-318 112zM213 590l18 -21l248 230l-10 10zM430 1364l111 -317l14 4l-100 319zM492 870l79 -82l134 37l28 107l-86 86l-125 -33zM625 748l63 -332l25 8l-72 328zM709 1028l10 -12l227 248 l-18 20zM774 877l330 -74l6 26l-332 62z" />
<glyph unicode="," horiz-adv-x="653" d="M102 184q0 84 59.5 143.5t143.5 59.5t142.5 -59.5t62.5 -143.5q2 -115 -74 -225q-92 -135 -258 -186q78 88 105 211q-166 2 -181 200zM176 170q0 -68 68 -107q-31 29 -31 78q0 25 8 47q35 102 101 131q-55 4 -95.5 -28.5t-48.5 -89.5q-2 -16 -2 -31z" />
<glyph unicode="-" horiz-adv-x="628" d="M61 463v330l488 129v-328zM117 698l348 95v43l-348 -95v-43z" />
<glyph unicode="." horiz-adv-x="653" d="M102 184q0 84 59.5 143.5t143.5 59.5t144.5 -59.5t60.5 -143.5t-60.5 -143t-144.5 -59t-143.5 59t-59.5 143zM176 170q0 -68 68 -107q-31 29 -31 78q0 25 8 47q35 102 101 131q-113 6 -144 -118q-2 -16 -2 -31z" />
<glyph unicode="/" horiz-adv-x="745" d="M20 -47l578 1585l201 -72l-578 -1585zM78 -8l26 -8l543 1491l-26 8z" />
<glyph unicode="0" horiz-adv-x="1329" d="M72 700q0 272 166 478q178 221 444 221t444 -221q166 -206 166 -478t-166 -479q-178 -219 -444 -219t-444 219q-166 207 -166 479zM178 717q1 -285 230 -547q-82 115 -130.5 274.5t-48.5 303.5q0 254 142 469q-88 -90 -140.5 -230.5t-52.5 -269.5zM508 348q0 -70 52 -118 t122 -48t122 48.5t52 117.5v725q0 63 -55.5 113.5t-118.5 50.5q-70 0 -122 -48t-52 -116v-725zM877 1245q45 -37 84 -252q31 -180 30 -282q0 -313 -106 -531q170 228 170 500q0 141 -48.5 298t-129.5 267z" />
<glyph unicode="1" horiz-adv-x="794" d="M78 172q78 6 133 45q66 45 65 117l3 760q0 33 -18.5 63.5t-51.5 30.5q-23 0 -55 -19l-4 185q68 37 155 37q104 0 189 -66q78 31 92 31q43 0 43 -39v-983q-1 -146 159 -160l-63 -186h-14q-145 -6 -267 127q-45 -59 -117.5 -96t-142.5 -33l-34 2zM317 219q84 27 84 172v586 q0 57 -18 125q-18 78 -51 110q27 -43 26 -172v-614q0 -164 -41 -207z" />
<glyph unicode="2" horiz-adv-x="1095" d="M70 1051q0 150 166 247q141 84 303 84q197 0 327 -96q145 -106 146 -297q0 -164 -115 -293q-72 -84 -272.5 -164.5t-302.5 -189.5q82 14 157 14q78 0 184.5 -33.5t155.5 -33.5q113 0 137 121q101 -49 101 -158q0 -117 -64.5 -185.5t-179.5 -68.5q-63 0 -184 34t-189 34 q-72 0 -191.5 -40t-133.5 -40q-43 0 -43 86q0 172 71 329q78 172 213 252q154 92 217 152q115 106 115 223q0 205 -168 205q-96 0 -153 -113q86 -66 86 -139q0 -70 -54.5 -115t-124.5 -45q-205 0 -204 230zM453 629q168 76 249 139q142 113 142 256q0 84 -53.5 150.5 t-137.5 97.5q133 -92 133 -240q-2 -141 -114 -252q-59 -55 -219 -151z" />
<glyph unicode="3" horiz-adv-x="1107" d="M74 313q0 68 47 114t115 46q63 0 114 -50t51 -116q0 -59 -47 -104q57 -33 127 -33q96 0 162 53t66 148q0 236 -396 213v166q39 -4 76 -5q317 0 318 295q0 84 -50.5 133.5t-128.5 53.5q-113 4 -178 -109q84 -70 84 -147q0 -66 -47 -112t-115 -46q-78 0 -134 62.5 t-56 142.5q0 172 143 266q123 82 301 82q201 0 336 -88q160 -104 160 -295q0 -168 -164 -281q193 -110 193 -290q0 -88 -47.5 -184.5t-116.5 -149.5q-109 -88 -340 -88q-182 0 -311 69q-162 88 -162 254zM623 731v2q6 0 34 -24q154 -129 154 -289q0 -143 -129 -275 q74 47 126 128t52 163q0 150 -168 295q152 115 152 285q0 150 -129 241q90 -98 90 -231q0 -164 -180 -297z" />
<glyph unicode="4" horiz-adv-x="1280" d="M47 551l615 815l411 -4v-156l-139 -4v-635q90 2 120.5 29t35.5 115h137q4 -24 4 -49q0 -143 -84 -183q70 -66 70 -198q0 -25 -3 -41h-145q0 59 -37 96t-94 35q-8 -31 -8 -60q0 -68 46 -112.5t114 -51.5l-5 -153q-27 -2 -51 -2q-170 0 -248 92q-74 -98 -327 -94h-27l6 139 q174 14 174 215q0 20 -2 35h-483zM295 567l315 -4v416zM651 178q82 27 82 172l2 791l-43 -60v-678q0 -184 -41 -225z" />
<glyph unicode="5" horiz-adv-x="1150" d="M86 643v711h170l61 -64q150 86 316 86q70 0 146.5 -33.5t107.5 -33.5q18 0 48 13t46 13q31 0 48.5 -26.5t17.5 -57.5q0 -109 -87.5 -179.5t-195.5 -70.5q-102 0 -229 64.5t-175 64.5q-25 0 -38 -12v-303q109 76 307 76q197 0 319 -107q131 -110 131 -305 q0 -205 -156.5 -354.5t-361.5 -149.5q-178 0 -311 76q-162 92 -162 256q0 72 49 130.5t119 58.5q66 0 120 -52.5t54 -115.5q0 -61 -57 -121q68 -72 139 -72q98 0 172 109q66 96 66 200q0 98 -50 164q-55 74 -149 74q-154 0 -281 -139zM733 156q170 119 170 254 q0 78 -40 161.5t-97 128.5q86 -117 86 -268q0 -154 -119 -276z" />
<glyph unicode="6" horiz-adv-x="1120" d="M2 694q0 279 148 477q162 221 430 222q135 0 222 -47.5t146 -159.5q20 -41 21 -80q0 -84 -52.5 -140.5t-136.5 -56.5q-68 0 -116 47.5t-48 114.5q0 61 50 117q-43 45 -95 45q-98 0 -161 -135q-53 -111 -54 -217q0 -23 2 -45q158 55 287 55q178 0 289 -129 q102 -121 102 -301q0 -203 -130 -336t-333 -133q-291 0 -440 213q-131 184 -131 489zM72 686q0 -178 65 -326q76 -165 217 -243q-109 98 -172 266q-61 158 -61 311q0 223 117 453q-166 -154 -166 -461zM381 440q0 -90 35 -174q43 -109 121 -108q76 0 120 108q33 84 33 174 t-33 172q-45 109 -120 109q-78 0 -121 -109q-35 -82 -35 -172zM662 166q169 119 169 264q0 78 -38.5 156t-98.5 125q86 -117 86 -269q0 -154 -118 -276z" />
<glyph unicode="7" horiz-adv-x="1122" d="M53 1319q20 27 51 27q33 0 88.5 -39t96.5 -39q47 0 139 36.5t147 36.5q45 0 127 -28.5t127 -28.5q53 0 103.5 29.5t77.5 29.5q80 0 80 -112l2 -45q0 -141 -109 -275q-100 -102 -203 -206q-111 -119 -110 -224q0 -92 24 -123q29 -41 123 -41q43 0 80 7q2 -23 2 -45 q0 -135 -86 -209t-223 -74q-139 0 -234 115q-90 106 -90 247q0 113 70 234q68 115 166 182q100 61 200 123q92 61 170 166q-70 -63 -243 -64q-37 0 -112 9.5t-111 9.5q-82 0 -144 -37q-76 -45 -65 -123h-140zM360 389q0 -80 58 -166q49 -78 123 -129q-119 123 -119 277 q0 152 86 268q-147 -117 -148 -250z" />
<glyph unicode="8" horiz-adv-x="1202" d="M76 416q0 217 198 348q-141 57 -141 262q0 162 152 266q137 94 305 94q180 0 301 -77q143 -92 143 -260q0 -160 -127 -252q102 -55 165 -163.5t63 -227.5q0 -184 -168 -310q-154 -115 -342 -114q-231 0 -377 98q-172 115 -172 336zM215 1034q0 -180 180 -274 q168 -70 336 -139q180 -92 180 -265q0 -43 -16 -88q51 76 51 154q0 158 -194 246q-178 74 -355 149q-184 113 -164 336q-18 -61 -18 -119zM410 352q0 -186 202 -186q211 0 211 205q0 66 -90 135q-68 51 -147 84q-176 -113 -176 -238zM442 1112q0 -74 86 -129q74 -47 152 -47 q49 0 90 47t41 96q0 70 -56.5 113t-127.5 43q-184 0 -185 -123z" />
<glyph unicode="9" horiz-adv-x="1214" d="M72 903q0 221 153 357q145 125 365 124q276 0 430 -210q135 -189 135 -482q0 -266 -154 -473q-166 -227 -419 -227q-152 0 -260 59q-135 72 -136 211q0 76 51.5 120t129.5 44q66 0 105.5 -45t39.5 -111q0 -41 -16 -73q53 -43 98 -43q86 0 125 161q27 111 24 242 q-104 -82 -237 -82q-182 0 -308 123t-126 305zM158 891q0 -133 135 -240q-74 125 -74 277q1 157 105 268q-68 -55 -115 -137q-51 -88 -51 -168zM444 895q0 -231 170 -231q70 0 134 51q6 69 6 155q0 362 -148 363q-162 0 -162 -338zM741 1229q123 -195 123 -510 q0 -262 -112 -526q88 84 135 247q39 138 39 285q0 346 -185 504z" />
<glyph unicode=":" horiz-adv-x="630" d="M102 184q0 84 59.5 143.5t143.5 59.5t144.5 -59.5t60.5 -143.5t-60.5 -143t-144.5 -59t-143.5 59t-59.5 143zM102 901q0 84 59.5 143.5t143.5 59.5t144.5 -59.5t60.5 -143.5t-60.5 -143t-144.5 -59t-143.5 59t-59.5 143zM176 170q0 -68 68 -107q-31 29 -31 78q0 25 8 47 q35 102 101 131q-113 6 -144 -118q-2 -16 -2 -31zM176 887q0 -68 68 -107q-31 29 -31 78q0 25 8 47q35 102 101 131q-113 6 -144 -118q-2 -16 -2 -31z" />
<glyph unicode=";" horiz-adv-x="653" d="M102 184q0 84 59.5 143.5t143.5 59.5t142.5 -59.5t62.5 -143.5q2 -115 -74 -225q-92 -135 -258 -186q78 88 105 211q-166 2 -181 200zM102 901q0 84 59.5 143.5t143.5 59.5t144.5 -59.5t60.5 -143.5t-60.5 -143t-144.5 -59t-143.5 59t-59.5 143zM176 170q0 -68 68 -107 q-31 29 -31 78q0 25 8 47q35 102 101 131q-55 4 -95.5 -28.5t-48.5 -89.5q-2 -16 -2 -31zM176 887q0 -68 68 -107q-31 29 -31 78q0 25 8 47q35 102 101 131q-113 6 -144 -118q-2 -16 -2 -31z" />
<glyph unicode="?" horiz-adv-x="1261" d="M102 1149q4 176 185 281q154 88 342 88q211 0 356.5 -83t192.5 -233q20 -61 20 -117q0 -154 -147 -270q-68 -53 -242 -135q-127 -70 -127 -197q0 -16 2 -32q-100 86 -100 192q0 145 141 250q158 125 143 254q0 104 -84 174q-76 61 -178 61q-125 0 -184 -94 q98 -57 98 -174q0 -84 -59.5 -138t-151.5 -54q-98 0 -155 69q-53 63 -52 158zM469 184q0 84 59.5 143.5t143.5 59.5t144.5 -59.5t60.5 -143.5t-60.5 -143t-144.5 -59t-143.5 59t-59.5 143zM543 170q0 -68 69 -107q-33 29 -32 78q0 25 8 47q34 102 100 131q-113 6 -143 -118 q-2 -16 -2 -31zM836 852q74 27 123 98.5t57 153.5q4 201 -180 274q129 -88 129 -276q-2 -45 -17 -88q-31 -98 -112 -162z" />
<glyph unicode="@" horiz-adv-x="1857" d="M37 727q0 348 276 586q262 227 619 227q342 0 608 -213q285 -225 285 -561q0 -164 -113 -311q-121 -158 -282 -158q-131 0 -228 96q-117 -111 -270 -110q-166 0 -285 123.5t-119 289.5q0 164 119 283t285 119q135 0 242 -82h155l-2 -496q0 -92 66 -92q158 0 157 330 q0 258 -180 438t-438 180t-429 -195.5t-171 -453.5q0 -291 213 -479q205 -180 499 -180q344 0 580 143q-295 -299 -692 -299q-356 0 -619 227q-276 238 -276 588zM106 723q0 -197 125 -381q119 -172 301 -270q-154 113 -262 276q-119 186 -118 354q0 178 110 377 q106 190 258 299q-170 -100 -289 -278q-125 -190 -125 -377zM600 694q-4 -219 164 -301q-127 104 -127 303q4 51 18 97q35 111 109 180q-135 -59 -164 -279zM752 696q0 -92 43 -172q51 -96 137 -96q80 0 133 94q47 82 47 170q0 94 -43 170q-51 90 -137 90t-137 -90 q-43 -76 -43 -166zM1354 1282q129 -55 202 -229q61 -147 62 -310q0 -154 -57 -251q92 77 92 284q0 166 -72 303q-82 154 -227 203z" />
<glyph unicode="A" d="M6 10v135q150 6 205 136q111 256 223 514q184 432 184 481q0 63 -81 63q-25 0 -52 -4l2 164q41 10 99 10q188 0 280 -123q41 57 125 91q74 30 149 30h5q43 0 86 -8v-147q-51 -2 -88 -27q-45 -29 -45 -76q0 -31 20 -69l465 -899q75 -145 156 -145q5 0 10 1v-141 q-16 -4 -45 -4q-195 0 -285 112q-113 -106 -317 -106q-35 0 -68 4v135q63 0 115 19q72 25 72 73q0 29 -37 99q-27 45 -54 92h-634q-53 -127 -54 -160q0 -123 178 -123h11v-135q-29 -6 -70 -6q-141 0 -221 86q-121 -90 -246 -90q-47 0 -88 18zM592 639l416 -2l-232 463z M836 1212l483 -952q0 84 -33 148l-366 735q-20 37 -84 69z" />
<glyph unicode="B" horiz-adv-x="1447" d="M76 1362v139q35 4 86 4q213 0 287 -80q174 100 385 101q199 0 356 -115q172 -127 172 -315q0 -170 -178 -271q100 -43 168 -159q63 -109 63 -220q0 -225 -207 -354q-174 -108 -413 -108h-4q-211 0 -355 116q-51 -51 -141 -80q-79 -26 -156 -26h-6l-20 2v145 q66 16 105.5 70.5t39.5 124.5v807q0 100 -39 160q-42 61 -115 61q-14 0 -28 -2zM307 209q82 27 82 172v688q0 168 -65 236q24 -41 24 -162v-10v-717q0 -164 -41 -207zM616 891q35 -2 66 -2q311 0 311 254q0 94 -45 157q-51 72 -141 72q-66 0 -121 -22q-70 -33 -70 -93v-366z M621 342q0 -178 167 -178q119 0 201 83t82 206q0 113 -82 190.5t-196 77.5q-80 0 -172 -43v-336zM1016 1317q67 -73 67 -186q0 -93 -55 -181q94 87 94 193q0 98 -106 174zM1071 231q129 99 129 228q0 104 -113 192q66 -90 66 -209q0 -115 -82 -211z" />
<glyph unicode="C" horiz-adv-x="1306" d="M61 721q0 328 148 549q170 254 481 254q172 0 350 -101l39 68l125 -8v-500l-121 -4q-84 371 -323 371q-178 0 -268 -213q-70 -160 -70 -365q0 -213 72 -375q94 -213 280 -213q135 0 238 105q94 96 121 233l147 -55q-25 -203 -195 -347.5t-374 -144.5q-303 0 -482 226 q-168 207 -168 520zM217 401q74 -184 219 -274q-109 109 -174 295q-59 172 -59 338q0 246 116 500q-165 -167 -165 -502q0 -197 63 -357z" />
<glyph unicode="D" horiz-adv-x="1368" d="M53 1364v137q33 6 80 6q186 0 242 -110q124 114 348 114h4q322 0 485 -219q148 -194 148 -528t-137 -535q-161 -235 -477 -235h-3q-229 0 -340 127q-47 -59 -130 -93t-162 -34q-29 0 -56 4v131q68 14 111 68.5t43 126.5v804q0 98 -29 162q-36 75 -107 75q-9 0 -20 -1z M256 199q80 27 80 172v688q0 170 -64 235q25 -43 25 -172v-716q0 -164 -41 -207zM551 379q0 -74 31 -131q39 -70 106 -70q172 0 244 242q47 154 47 383q0 188 -45 338q-66 223 -205 223q-178 0 -178 -219v-766zM948 236q162 141 162 534q0 391 -160 535q111 -207 111 -517 q0 -346 -113 -552z" />
<glyph unicode="E" horiz-adv-x="1411" d="M82 1356v149l41 2h25q227 0 270 -104q152 104 330 104q66 0 170 -31.5t147 -31.5q76 0 88 67l113 -55l2 -317l-117 -37q-20 100 -108.5 161.5t-192.5 61.5q-147 0 -203 -82q-39 -61 -39 -199v-83q2 -55 2 -87q37 -16 80 -16q139 0 148 203l143 -6q2 -16 2 -43 q0 -203 -90 -226q96 -72 106 -229h-163q-29 74 -50 96q-33 33 -104 33q-47 0 -70 -31q0 -225 15 -293q39 -186 188 -186q162 0 260 86q106 90 113 252l166 -20l-37 -496h-111l-55 94q-166 -96 -358 -96q-186 0 -318 119q-131 -121 -274 -121q-35 0 -68 10v152q63 0 96 75 q27 57 27 129l-2 750q0 102 -35 170q-39 78 -113 78q-12 0 -24 -2zM307 199q84 27 84 172v688q0 57 -16 125q-20 78 -51 110q24 -41 24 -162v-10v-716q0 -164 -41 -207z" />
<glyph unicode="F" horiz-adv-x="1253" d="M63 1376v129h33h26q203 0 298 -88q170 98 307 99q100 0 207 -50q41 -45 84 -45q49 0 72 70l98 -29l51 -393l-162 -22q-127 299 -350 299q-68 0 -113 -38t-45 -106v-332q16 -4 39 -4q160 0 193 181h155v-43q0 -59 -4 -86q-18 -82 -94 -107q102 -78 103 -213q0 -20 -5 -41 l-149 -4q-18 55 -61.5 97t-96.5 42q-59 0 -71 -6l-3 -262q0 -113 46 -188q53 -92 157 -95v-149q-18 -4 -51 -4q-168 0 -272 121q-119 -115 -310 -115q-35 0 -71 6v137q66 14 102.5 73.5t36.5 129.5v834q0 82 -35 139q-37 64 -102 64q-6 0 -13 -1zM256 219q86 27 86 172v688 q0 55 -18 125q-20 78 -52 111q25 -43 25 -172v-717q0 -164 -41 -207z" />
<glyph unicode="G" horiz-adv-x="1343" d="M150 1292q184 236 471 236q170 0 303 -72l10 57l164 -30l94 -379l-152 -39q-20 127 -116.5 216t-223.5 89q-190 0 -280 -231q-63 -164 -64 -389q0 -221 56 -371q80 -215 260 -215q84 0 142 47t58 131v195q0 66 -49 113.5t-118 62.5v166q195 -10 321 -121q80 90 283 96 v-154q-127 -41 -127 -245v-445h-205l-64 58q-131 -82 -295 -82q-86 0 -143 18q-495 154 -495 772q0 297 170 516zM74 765q0 -352 239 -593q-174 279 -174 621q0 274 131 510q-90 -96 -143 -252q-53 -145 -53 -286zM920 674q43 -74 43 -266q0 -49 -3.5 -129t-3.5 -103l50 -45 l2 373q0 45 -25 100q-27 66 -63 70z" />
<glyph unicode="H" horiz-adv-x="1679" d="M86 143q82 8 141 54q68 51 68 127l-2 870q0 82 -49 129q-43 42 -114 42q-9 0 -19 -1l-2 137q33 6 79 6q168 0 271 -80q106 80 239 80q66 0 125 -24v-123q-78 -4 -131 -47q-57 -49 -57 -123l2 -258h448v119q2 80 2 120q0 178 -174 193v125q57 16 129 16q156 0 232 -94 q98 96 239 96q53 0 103 -16l2 -131h-14h-7q-65 0 -104 -33q-47 -37 -47 -106v-877q0 -182 172 -201l2 -139q-43 -6 -100 -6q-178 0 -263 86q-100 -88 -268 -88q-45 0 -92 8v135q84 2 135 72q47 63 47 151l2 363l-448 -2v-408q0 -168 186 -178v-139q-20 -2 -55 -2 q-215 0 -299 90q-113 -88 -270 -88q-53 0 -107 14zM334 219q43 14 69 74q23 49 23 98v688q0 55 -21.5 128t-54.5 108q25 -43 25 -172v-717q0 -164 -41 -207zM1122 219q43 14 70 74q22 49 22 98v688q0 55 -21.5 128t-53.5 108q24 -41 24 -162v-10v-717q0 -164 -41 -207z" />
<glyph unicode="I" horiz-adv-x="841" d="M104 1352v137q47 20 113 20q129 0 223 -98q78 102 236 102q45 0 94 -12l2 -151q-66 -2 -107.5 -44t-41.5 -108v-901q0 -143 137 -164v-131q-29 -6 -70 -6q-176 0 -270 117q-34 -55 -108 -87q-69 -30 -136 -30h-8l-41 2v135q66 4 103.5 55.5t37.5 118.5l-2 842 q0 204 -145 204q-8 0 -17 -1zM317 219q43 14 66 74q18 47 18 98v688q0 57 -18 125q-18 78 -51 111q26 -41 26 -163v-9v-717q0 -164 -41 -207z" />
<glyph unicode="J" horiz-adv-x="1363" d="M51 340q0 100 61.5 179t157.5 79q94 0 162 -62.5t68 -154.5q0 -121 -99 -180q61 -98 156 -99q92 0 160.5 73t68.5 167v786q0 98 -53 162t-149 66v139q51 12 123 12q195 0 292 -112q39 53 115 84q66 28 134 28h5q33 0 68 -6v-155h-7q-69 0 -118 -39q-51 -41 -51 -113v-600 q0 -623 -567 -623q-190 0 -345 86q-182 106 -182 283zM139 330q0 -86 66 -135q-31 37 -31 98q0 31 6 59q35 127 96 162q-9 1 -17 1q-56 0 -89 -58q-31 -55 -31 -127zM821 207q90 51 90 151v772q0 141 -73 177q31 -55 30 -121l2 -834q0 -96 -49 -145z" />
<glyph unicode="K" horiz-adv-x="1490" d="M-10 -2v137q76 12 121 82q39 61 39 143v768q0 102 -21 150q-33 70 -125 72v141q63 16 141 16q152 0 217 -73q33 73 166 73h4q49 0 107 -12v-141q-66 -10 -105.5 -63.5t-39.5 -121.5v-295l354 345q39 35 39 77q0 53 -101 54l2 143q43 12 101 12q125 0 192 -73 q85 75 198 75h3q47 0 92 -18v-143h-8h-6q-83 0 -182 -99l-271 -272l314 -651q29 -61 108.5 -121t138.5 -60v-139q-53 -16 -127 -16q-158 0 -260 90q-102 -84 -239 -84q-49 0 -97 14l3 158q104 16 104 80q0 14 -201 446l-149 -153v-199q0 -78 41 -126q36 -43 102 -43 q8 0 17 1v-170q-25 -6 -62 -6q-150 0 -240 110q-114 -112 -304 -112h-3q-31 0 -63 4zM207 219q80 27 80 172v688q0 170 -64 236q25 -43 25 -172v-717q0 -164 -41 -207zM717 772q72 -145 143 -291q90 -200 90 -293v-8q25 57 25 123q0 63 -92 256q-66 127 -129 254z" />
<glyph unicode="L" horiz-adv-x="1306" d="M63 1360v137q41 8 97 8q176 0 272 -100q92 104 268 104q37 0 74 -6v-145h-6h-11q-70 0 -111 -48q-44 -52 -44 -134v-875q82 -49 195 -49q262 0 415 334l119 -64l-127 -524h-143l-35 65q-156 -69 -323 -69h-5q-193 0 -295 117q-92 -113 -225 -113q-53 0 -106 22v146 q86 0 137 72q45 63 45 151l2 791q0 154 -193 180zM299 219q88 27 88 172l-2 688q0 55 -18 125q-20 78 -52 111q25 -43 25 -172v-717q0 -164 -41 -207z" />
<glyph unicode="M" horiz-adv-x="1966" d="M68 -2v164q82 6 137 60t55 138v752q0 221 -179 221h-3v162h504l422 -637l446 637h422l2 -182h-6q-64 0 -103 -43q-41 -45 -41 -113v-788q1 -174 183 -217l-2 -148q-35 -6 -86 -6q-190 0 -283 98q-43 -51 -143 -80q-79 -22 -159 -22h-7q-41 0 -84 4v147q92 8 151.5 74 t59.5 160v553l-434 -580l-447 652v-637q0 -160 182 -215v-150q-33 -4 -80 -4q-166 0 -223 84q-82 -88 -225 -88q-29 0 -59 4zM467 1196l444 -666l33 35l-393 580q-33 47 -84 51zM1360 188q63 20 102 76.5t39 122.5v762l-39 -53l-2 -682q0 -170 -100 -226z" />
<glyph unicode="N" horiz-adv-x="1583" d="M92 1329v166h350l738 -831v483q0 84 -33 137q-43 61 -121 62v157q23 4 57 4q139 0 215 -90q55 92 203 92q20 0 45 -2v-166q-63 -2 -105 -43t-42 -104v-1184h-152l-690 795v-463q0 -190 155 -190h11v-148q-31 -12 -78 -12q-119 0 -205 86q-106 -84 -229 -84q-18 0 -35 2 v151q63 6 103 53.5t40 112.5v758q0 111 -55 182q-59 76 -166 76h-6zM504 1018l719 -828v66l-719 825v-63z" />
<glyph unicode="O" horiz-adv-x="1351" d="M41 745q0 307 174 537q190 252 490 252q289 0 475 -252q168 -229 168 -528q0 -309 -170 -539q-188 -252 -488 -252q-289 0 -477 252q-172 231 -172 530zM137 741q0 -317 246 -600q-186 317 -186 635q0 279 145 531q-92 -106 -148.5 -264t-56.5 -302zM449 721 q0 -176 53 -350q72 -236 203 -236q225 1 225 572q0 199 -37 368q-59 264 -188 264q-152 0 -218 -245q-38 -150 -38 -362v-11zM905 1292l6 -8q121 -256 121 -569q0 -326 -119 -539q185 230 185 537q0 313 -193 579z" />
<glyph unicode="P" horiz-adv-x="1345" d="M74 -4v133q66 0 110.5 38t44.5 101v895q0 74 -36 121q-41 51 -110 51h-5v164q37 6 88 6q182 0 266 -104q168 121 344 121q233 0 387 -158t154 -391q0 -231 -153.5 -389t-385.5 -158q-98 0 -182 45v-184q0 -72 49 -107q39 -28 94 -28q14 0 29 2v-146q-55 -18 -125 -18 q-139 0 -217 98q-100 -98 -279 -98q-37 0 -73 6zM268 209q80 27 80 172v688q0 170 -65 236q26 -41 26 -163v-9v-717q0 -164 -41 -207zM586 676q49 -27 112 -27q141 0 213 119q60 96 60 246q0 45 -4 80q-8 74 -58 149q-57 92 -125 92q-78 0 -137 -54t-59 -130zM946 651 q70 66 115 167.5t45 195.5q0 164 -129 309q84 -147 84 -334q0 -190 -115 -338z" />
<glyph unicode="Q" horiz-adv-x="1425" d="M51 745q0 307 174 537q190 252 490 252q289 0 475 -252q168 -229 168 -528q0 -207 -84 -392q-88 -193 -242 -299q67 -65 112 -65h1q55 0 104 57q41 47 62 109q104 -96 104 -207q0 -98 -68.5 -169t-164.5 -71q-205 0 -369 256q-55 -10 -113 -10q-289 0 -477 252 q-172 229 -172 530zM147 741q0 -317 246 -600q-192 324 -192 632q0 271 151 534q-92 -106 -148.5 -264t-56.5 -302zM459 721q0 -176 53 -350q72 -236 203 -236h10q-37 78 -107 256l140 68q37 -78 114 -197q68 150 68 445q0 199 -37 368q-59 264 -188 264q-152 0 -217 -245 q-39 -154 -39 -373zM922 1282q120 -254 120 -562v-5q0 -317 -114 -531q180 228 180 529q0 303 -186 569z" />
<glyph unicode="R" horiz-adv-x="1519" d="M4 1321v160q72 32 157 32h5q158 0 242 -127q61 61 170 103q102 37 194 37q217 0 357.5 -144.5t140.5 -361.5q0 -131 -78 -224.5t-207 -117.5q96 -49 160 -158q41 -88 83 -171t93 -83q68 0 135 125q45 -81 45 -153q0 -104 -85 -174t-191 -70q-190 0 -289 162 q-61 152 -121 301q-66 161 -179 161h-1q-39 0 -72 -16q-41 -23 -41 -59v-185q0 -74 45 -131t117 -59v-160q-41 -8 -96 -8q-168 0 -223 106q-85 -114 -237 -114h-3q-55 0 -115 20v133q66 8 107 58.5t41 115.5v842q0 168 -109 168q-20 0 -45 -8zM205 199q43 16 67 75 q23 50 23 99v698q0 57 -19 123q-23 76 -55 111q25 -43 25 -172v-727q0 -164 -41 -207zM532 791q41 -10 78 -11q143 0 230.5 86.5t87.5 229.5q0 92 -41 147q-45 63 -133 64q-221 0 -222 -189v-327zM856 571q31 -20 74 -143q55 -158 84 -209q59 -106 139 -106q-72 47 -143 243 q-68 184 -154 215zM946 1292q74 -94 74 -221q0 -98 -57 -186q108 98 108 217q0 111 -125 190z" />
<glyph unicode="S" horiz-adv-x="1284" d="M72 1067q0 207 155 336q145 121 359 121q197 0 403 -111l23 74l116 -17l23 -487l-123 -10q-88 389 -354 389q-94 0 -162 -74t-68 -170q0 -76 125 -123q131 -37 262 -73q166 -49 232 -117q145 -150 145 -330q0 -219 -180 -362q-168 -135 -391 -136q-100 0 -224 51.5 t-116 51.5q-27 0 -27 -39q0 -9 2 -21h-155l-23 541l146 10q37 -127 157 -260q134 -149 248 -149h2q90 0 157.5 61.5t67.5 151.5q0 152 -206 211q-379 109 -387 112q-207 106 -207 369zM180 1034q0 -141 103 -227q76 -66 229 -109q125 -31 250 -61q66 -18 125 -107.5 t59 -158.5q0 -33 -8 -66q39 69 39 135q0 238 -426 299q-152 23 -252 123q-109 104 -111 254q-8 -43 -8 -82z" />
<glyph unicode="T" horiz-adv-x="1337" d="M2 950v516l82 31q43 -49 129 -49q51 0 141 38t146 38q113 0 168 -88q23 37 100 65q68 27 119 27q66 0 144.5 -43t117.5 -43q49 0 55 55l96 -18v-506l-149 -84q-18 199 -31 241q-41 170 -145 170q-53 0 -99.5 -41.5t-46.5 -93.5v-829q0 -74 37 -127q37 -57 101 -57h8 l2 -144q-33 -10 -78 -10q-143 0 -221 104q-94 -104 -285 -104q-25 0 -51 2v139q59 10 97 54.5t38 103.5v877q0 124 -106 124h-2q-117 0 -181 -163q-45 -117 -51 -258zM530 209q84 27 84 172l-2 688q0 168 -67 236q26 -41 26 -163v-9v-717q0 -164 -41 -207z" />
<glyph unicode="U" horiz-adv-x="1443" d="M63 1356v143q39 10 97 10q158 0 237 -102q68 102 230 102q37 0 75 -6v-147q-66 -2 -105.5 -49t-39.5 -115v-727q0 -127 66.5 -202t197.5 -75q117 0 180.5 77t63.5 196v659q0 98 -41 160q-49 72 -141 74l-2 151q27 4 63 4q139 0 211 -82q55 80 162 80q45 0 92 -20l2 -146 h-12q-63 0 -98 -42t-35 -107v-774q0 -190 -162 -320q-150 -123 -344 -123q-229 0 -385 157t-156 386v656q0 80 -37 131q-36 53 -96 53q-11 0 -23 -2zM297 1303q8 -41 8 -156v-619q0 -147 88 -290q-39 121 -39 280l2 543q0 143 -59 242z" />
<glyph unicode="V" horiz-adv-x="1591" d="M12 1331v156q55 16 129 16q182 0 262 -125q49 61 148 99q85 30 171 30h5q35 0 70 -4l2 -164q-66 -2 -115 -28q-61 -35 -61 -94q0 -43 125 -388q78 -209 155 -415l256 719q14 41 15 75q0 119 -144 133v158q35 8 76 8q115 0 184 -77q89 79 212 79h3q41 0 80 -10v-162h-12 h-10q-130 0 -205 -209l-416 -1130h-287l-393 1116q-76 217 -250 217zM285 1300l399 -1148l51 2l-297 837q-43 125 -61 164q-41 96 -92 145z" />
<glyph unicode="W" horiz-adv-x="2056" d="M4 1339l2 160q33 6 64 6q158 0 249 -100q109 104 250 104q66 0 113 -18l2 -145q-74 -6 -106 -25q-47 -27 -48 -94q0 -63 64 -264q43 -135 86 -271l211 811l225 2l287 -868q49 160 98 319q76 252 76 299q0 53 -51 80q-40 21 -92 21h-9v147q29 8 60 8q102 0 196 -67 q106 61 213 61q47 0 74 -10v-160q-23 6 -43 6q-100 0 -145 -161l-330 -1182l-231 2l-261 737l-196 -737h-250l-348 1192q-37 127 -160 147zM215 1303q29 -43 66 -170l294 -1027h43l-284 981q-47 162 -119 216zM961 1128l333 -1013l49 -2l-364 1104z" />
<glyph unicode="X" horiz-adv-x="1525" d="M41 1329v166q59 16 133 15q147 0 213 -74q93 73 248 73h4q49 0 100 -10v-149h-14h-11q-65 0 -65 -43q0 -29 72 -142q45 -72 92 -141q45 61 90 123q74 106 74 133q0 53 -117 61v158q29 6 72 6q127 0 198 -57q78 59 193 59q41 0 82 -10v-154q-121 -31 -203 -151l-252 -383 l271 -436q122 -198 254 -198q10 0 20 1v-164q-55 -14 -129 -14q-162 0 -258 88q-45 -90 -240 -90q-53 0 -114 10v131q135 16 135 94q0 37 -72 140q-47 66 -94 131q-49 -70 -100 -140q-72 -109 -72 -157q0 -68 94 -70l2 -133q-39 -10 -88 -10q-133 0 -197 80 q-76 -80 -210 -80h-13l-33 2v164q139 23 205 121l283 428l-240 380q-78 125 -125 170q-75 73 -163 73q-12 0 -25 -1zM295 1333q29 -31 90 -125l440 -686q51 -74 105 -149q63 -98 63 -164q13 20 13 57q0 63 -48 137l-458 703q-57 86 -90 127q-59 72 -115 100z" />
<glyph unicode="Y" horiz-adv-x="1513" d="M10 1341v158q59 14 133 14q178 0 238 -102q66 98 231 98q43 0 90 -8l-2 -153q-33 8 -57 8q-59 0 -59 -43q0 -31 104 -203q68 -102 133 -207q63 86 129 174q98 143 99 203q0 72 -104 72q-18 0 -38 -2l-2 147q59 10 129 10q172 0 211 -86q104 86 233 86h11l27 -2l-3 -164 q-72 -2 -153 -65q-68 -53 -115 -123l-321 -489l2 -375q0 -57 53 -96q48 -35 108 -35h13v-142q-61 -20 -135 -20q-156 0 -215 113q-94 -111 -258 -111q-61 0 -125 20v136h8q68 0 114 33.5t46 99.5v344l-322 532q-63 104 -70 115q-53 68 -108 68q-12 0 -25 -5zM197 1358 q47 -18 221 -322q104 -184 209 -370l2 -58q2 -57 2 -106q0 -281 -53 -316q88 35 88 133v365l-324 549q-20 35 -63 76q-49 45 -82 49z" />
<glyph unicode="Z" horiz-adv-x="1497" d="M55 250l836 1034q-78 29 -152 29q-133 0 -247 -101q-102 -92 -152 -225l-133 47v469l164 2l14 -108q134 116 350 116h4q156 0 197 -22q186 -106 414 -107q49 1 96 5l-866 -1135q106 -53 206 -53q147 0 283 116q121 102 184 252l166 -43l-39 -526h-155q-23 68 -105 68 q-53 0 -164.5 -39t-187.5 -39q-70 0 -190.5 30.5t-178.5 30.5q-133 0 -219 -61zM180 285l23 -39l835 1034l-39 10z" />
<glyph unicode="\" horiz-adv-x="3028" d="M10 735v92l6 13q-6 10 -6 30q0 12 4 38t4 38l-2 8l-4 4q4 43 4 103q0 57 -4 131q14 27 60 27q14 0 26 -9q49 10 56 11l16 -9q10 8 31 9q10 0 20 -11q0 -8 3 -22t3 -21l-8 -28q8 -12 8 -60v-87v-46q-2 -12 -2 -4l-6 -8v-8l6 -8v-7q2 -8 -4 -18l6 -19q23 0 39 -2q8 4 23 5 l6 -5q12 4 20 5q6 0 9 -3l12 7q31 -6 31 -56q0 -4 -9 -18l4 -14l-2 -11q7 -10 7 -30q0 -10 -2 -39q-8 -8 -33 -11l-43 -2l-6 7q-35 -4 -52 -5l-8 5q-43 -8 -37 -9q-68 0 -104 9q-10 -8 -43 -9l-12 4l-13 19q-2 4 -4 14zM37 874q0 -123 4 -139l8 -6q25 4 35 6q14 -6 35 -6 q43 0 53 6l16 -6q27 6 41 8l9 -6q31 2 47 4l6 -4q23 8 26 8q6 0 17 -2l6 4q0 8 -4 24.5t-4 25.5q0 6 3 18t3 18l-2 13l-4 4h-21l-4 -4q-16 0 -28 8q-45 -4 -72 2l-2 -6l-10 -2l-5 4l5 33q2 18 0 32l-5 7l-2 12q0 14 6.5 42.5t6.5 43.5q-4 10 -8 18q2 12 2 21l-5 4 q0 8 5.5 20.5t5.5 20.5q0 16 -13 28q0 4 4.5 15.5t4.5 15.5v25l-4 6q-10 0 -33 2t-33 2q-4 0 -11 -4t-10 -4q-4 0 -28 4q-14 2 -29 0l-6 -10v-47l8 -11v-10q0 -23 -5 -68t-5 -67l6 -21q0 -14 -5 -40.5t-5 -41.5zM424 956q10 12 10 31q0 61 25 103l10 2q2 18 24.5 39.5 t41.5 25.5q2 25 69 47q59 20 92 21q90 0 117 -27q53 -10 88 -51l6 -2q6 -8 19 -17l6 -20l16 -10q29 -55 31 -74l-4 -4q0 -10 6 -34t6 -36q0 -51 -20 -67q2 -29 -14.5 -58.5t-43.5 -36.5q-6 -18 -40.5 -43.5t-53.5 -25.5l-8 2q-29 -25 -92 -25q-45 0 -62 11l-2 -2 q-31 0 -92 24l-8 14q-25 6 -49 29q-4 6 -37 45l2 12q-12 18 -31 56l2 10q-12 41 -14 61zM455 942q0 -53 33.5 -103.5t82.5 -72.5q16 -39 160 -39q37 0 150 61q2 8 30.5 37t28.5 62v4q8 12 16 22q0 8 3.5 26t3.5 26q0 53 -35 114l-13 6q-61 111 -215 111q-49 0 -129 -35 q-12 -31 -43 -37q-12 -18 -30 -30q-2 -23 -22.5 -73t-20.5 -79zM612 963q0 6 4.5 16t4.5 16q0 14 -5 21q2 20 24 40.5t42 22.5l4 6q8 4 16 5q10 0 30 -12.5t22 -22.5l16 -6q12 -18 21 -27q0 -64 6 -84q-27 -66 -33 -74q-23 -31 -74 -30q-29 16 -43 22q-18 23 -24 27 q0 14 -5.5 39.5t-5.5 40.5zM639 958q0 -4 4 -14q6 -31 6 -47q8 -10 19 -27q4 0 13 -4t15 -4q-14 0 19 4q14 12 35 58q14 32 14 20q0 2 -2 6v54q-4 16 -27.5 34.5t-40.5 18.5l-4 -2q-20 -10 -28 -13q-4 -18 -17 -22q-4 14 -4 -47q0 -4 2 -6zM762 1614q0 86 41 153 q47 80 129 80q88 0 117 -118l24 -187q14 -10 49 -16q47 354 119 354l14 -10q-25 -55 -61 -172q-14 -72 -14 -123q0 -41 4 -59l28 4l11 -13l-11 -18l-22 -10q14 -47 41 -140q-8 -16 -34 -38.5t-42 -22.5q-43 0 -43 203q-16 4 -43 10q-35 -217 -104 -217q-59 0 -60 29l4 10 q43 109 76 196q-82 51 -82 78q0 29 31 37q12 -4 55 -41l2 59q2 49 -16 97q-23 59 -66 59q-53 0 -84 -61q-25 -49 -24 -109q0 -31 16 -65q18 -41 45 -41q6 0 18.5 5t18.5 5q18 0 19 -31q0 -39 -50 -39q-106 0 -106 152zM795 408q0 49 28.5 84.5t75.5 35.5q12 0 25 -2 q-4 66 -4 92q0 123 47 123q33 0 32 -24q0 -53 -2 -156.5t-2 -157.5q0 -70 17 -69l22 20l6 2l7 -6q0 -20 -17.5 -41.5t-38.5 -21.5q-12 0 -43 20q-45 -23 -69 -22q-84 0 -84 123zM862 420q0 -100 49 -101q17 1 17 15l-2 153q0 18 -15 19q-49 0 -49 -86zM1047 1108q0 61 2 76 q10 37 51 37l35 -9l12 9h14q31 0 43 -9q16 6 27 11q37 0 37 -41q0 -16 -6 -29q4 -45 4 -66l22 -4q6 0 27 4q6 76 6 62q0 8 -4 18q6 35 10 41q10 16 39 17l10 -6q14 4 31 4q18 0 37 -4l10 4l16 -4q10 4 21 4q16 0 33 -9q8 -12 8 -26q0 -12 -4 -37t-4 -37l6 -8q2 -98 -8 -123 q10 -27 10 -49q0 -104 -12 -119q12 -35 12 -78q0 -31 -47 -35q-4 -2 -76 -2q-12 0 -27 9l-16 -7q-49 2 -59 41v86q0 35 2 62l-13 10q-8 0 -30 -6q-6 -29 -6 -43q0 -6 3 -17.5t3 -17.5q0 -27 -6 -39q6 -37 8 -45q0 -35 -29 -35q-12 0 -27 4q-12 -6 -30 -6q-6 0 -31 11 q-23 -10 -53 -11q-16 0 -33 4q-14 27 -14 37q0 23 5 66t5 65q0 31 -2 93.5t-2 93.5q0 8 -5 26.5t-5 26.5zM1049 403q0 53 32.5 91t83.5 38q86 0 86 -98q0 -57 -41 -57q-43 0 -80 47q0 -102 60 -102q39 0 88 71q8 0 8 -16q0 -37 -44 -65.5t-83 -28.5q-111 0 -110 120z M1075 1178q0 -25 8 -37l-6 -37l2 -4q2 -127 11 -142q-6 -23 -5 -43q4 -37 7 -45q0 -23 -5.5 -64.5t-5.5 -64.5l6 -14l15 -2h119l14 4l2 14q0 8 -2 21.5t-2 21.5q8 14 8 23q0 8 -4 26.5t-4 26.5q0 -6 10 56q43 10 66 12l14 -8l12 2l4 -11q4 -33 -4 -94q4 -53 2 -80l6 -8l39 6 q12 -6 25 -6q8 0 22.5 2t22.5 2l6 -4q20 4 39 0l10 4q-12 45 -12 86q0 8 6 26.5t6 26.5q0 18 -6 56.5t-6 56.5q0 4 5 13.5t5 11.5q0 10 -4 28.5t-4 26.5l6 10q0 55 2 84l-2 31l-20 2l-8 -4q-25 2 -37 0l-8 6q-23 2 -60 -6l-10 6l-10 -4q-8 -66 -9 -117l5 -14q-8 0 -24.5 -3 t-25.5 -3q-8 0 -34 6q-4 -6 -15 -10l-6 8q4 72 -8 88q4 29 8 43l-6 4l-23 -12l-12 2l-10 10h-45l-62 -2l-6 -4zM1130 432q4 10 17 10q6 0 16.5 -9t16.5 -9q14 0 14 41t-29 41t-35 -74zM1239 1395q0 47 29.5 92t74.5 45q94 0 95 -31v-125q0 -29 6 -28q6 0 24 38l9 -4 q2 -6 4 -8q0 -29 -20.5 -58.5t-47.5 -29.5q-31 0 -37 23q-18 -25 -51 -25q-86 0 -86 111zM1288 336q0 33 37 33q-4 -14 -4 -27q0 -31 27 -31t26 43q0 55 -35 56q-6 -8 -22 -25q-12 4 -12 14q12 27 30 62q4 10 11 51q4 27 16 27h8q2 -16 10 -43l37 -58q16 -35 10 -65l19 30 q10 0 10 -8q0 -39 -32.5 -76.5t-71.5 -37.5q-23 0 -43.5 16t-20.5 39zM1311 1397q0 -76 35 -76q26 0 26 14v148q0 27 -12 26q-49 0 -49 -112zM1460 455q0 72 56 71q27 0 26 -57q0 -14 -3 -44t-3 -44q0 -39 10 -39q16 0 29 25q8 12 14 26q6 0 6 -10q0 -33 -23.5 -63.5 t-55.5 -30.5q-51 0 -52 102q0 10 -2 31.5t-2 32.5zM1470 582q0 51 39 51q27 0 27 -37q0 -51 -39 -51q-27 0 -27 37zM1483 1481q0 53 47 53q29 0 22 -64q31 63 58 64q32 0 32 -43q0 -18 -11 -43t-27 -25q-10 0 -25 35q-16 -23 -23 -104q-4 -61 -38 -62q-29 0 -31 49 q2 -35 2 70q0 12 -3 34.5t-3 35.5zM1591 1184q6 12 15 26q6 8 32 9q20 0 39 -7q16 8 43 9l21 -9l20 9q18 0 33 -21h6q23 -29 23 -43v-2l14 -6q18 -31 23 -43q16 -2 30 -21l4 5q-4 23 -4 38q0 14 4 25l-8 10q0 43 6 52.5t45 9.5q35 0 50 -8q8 4 18 6l8 -4q12 8 41 8 q8 0 21 -15q2 -37 2 -41l-2 -43l-4 -4q4 -10 6 -16q0 -37 -11 -78l7 -12q-2 -96 -9 -121l9 -43l-9 -59q8 -43 9 -68q-14 -23 -52 -22q-10 0 -22 6q-37 -8 -55 -9q-10 0 -29 25t-23 39q-35 20 -47 53q-18 14 -45 43q-8 -49 -8 -74l10 -24q-10 -39 -8 -57q-18 -6 -31 -7 q-6 0 -12 2q-6 -4 -12 -4q-8 0 -19 9l-18 -9h-72q-33 4 -33 50q0 20 9 40q-8 18 -9 41q0 27 11 60l-11 20q0 66 9 80l-7 12q6 16 7 82q0 29 -4 45l2 5l2 20q-12 8 -15 31zM1602 395q0 135 102 135q8 0 33 -12q31 10 53 10q18 0 18 -71v-23q-2 -20 -2 -33v-57q27 37 27 68 q16 -5 16 -19t-24 -71l-47 -109q-39 -70 -90 -70q-27 0 -48.5 22.5t-21.5 49.5q0 47 24 47q6 -4 11 -6l8 -47q6 -35 37 -35q41 0 41 100q0 8 -2 21v20q-27 -29 -54 -28q-82 0 -81 108zM1626 1176q10 -10 10 -103q-2 -16 -4 -43t4 -43l-6 -16q0 -14 4 -43t4 -43 q0 -16 -6 -58.5t-4 -64.5v-21l6 -8q14 -2 29 -2q-14 0 2 2h47h51q4 18 6 33l-8 16q2 10 6 23q-4 23 7 72l-11 4q4 14 13 24h6l14 -12q18 0 73.5 -56.5t57.5 -76.5q23 -20 29 -25q-10 0 4 2h35h39l6 8v9q0 6 -4 55l8 20q0 45 -8 64q12 47 12 213q0 -4 -6 24l8 25l-2 39l-10 2 l-21 -8q-23 8 -90 8q-6 -2 -8 -4v-21q6 -10 6 -38q0 -39 -8 -70q8 -16 8 -25l-2 -4l-2 -2l-14 2l-11 8l-2 9q-29 8 -57 41q-6 6 -43 55q4 37 -31 41q-12 -6 -24 -6q-12 12 -25 10h-10q-6 -10 -21 -10q-8 0 -23 4t-22 4l-12 -6v-8zM1649 1411q0 123 104 123q88 0 98 -107 q16 10 25 11q8 0 14 -4q0 -23 -41 -52q-20 -96 -108 -96q-45 0 -68.5 39t-23.5 86zM1669 395q0 -74 35 -73q29 -1 29 36v97q-4 43 -27 43q-37 0 -37 -103zM1724 1413q0 -100 33 -100q25 -1 25 73q0 125 -35 125q-23 0 -23 -98zM1858 414v35q0 84 40 83q33 0 33 -22 q0 -4 -2 -13.5t-2 -13.5q0 -6 2 -12q31 68 64 68q57 0 57 -78q0 -14 -2 -44t-2 -44q0 -20 10 -21l6 4q6 4 15 11q6 -9 8 -17q-27 -66 -76 -65q-31 0 -33 67q0 27 2 88q2 33 -14 37q-8 -10 -29 -110q-16 -78 -49 -78q-10 0 -16 4q-12 8 -12 121zM1898 1483q0 223 15 264 q8 23 43 22q12 0 22 -6q4 -10 4 -18q0 -59 -6 -175t-6 -175q0 -57 21 -58q12 0 20 27q6 -8 6 -18q0 -20 -19.5 -41t-39.5 -21q-59 0 -60 199zM2030 1411q0 49 28.5 85t75.5 36q12 0 25 -2q-4 66 -5 92q0 123 46 123q35 0 34 -25q0 -53 -3 -156.5t-3 -156.5q0 -70 19 -70 q-4 0 22 21l6 2l4 -6q0 -20 -16 -42t-37 -22q-12 0 -43 21q-45 -23 -69 -23q-84 0 -84 123zM2087 336q0 33 37 33q-4 -14 -4 -27q0 -31 26 -31q25 0 25 43q0 55 -33 56q-6 -8 -22 -25q-14 4 -15 14q47 88 47 131q0 8 13 9h8q2 -16 10 -43q55 -86 47 -123l19 30q10 0 10 -8 q0 -39 -33 -76.5t-72 -37.5q-25 0 -44 16t-19 39zM2095 1423q0 -100 51 -100q17 0 17 14l-2 154q-2 18 -15 18q-51 0 -51 -86zM2132 745q0 20 8 35q-6 18 -6 37q0 23 10 43q-6 12 -6 101q0 92 8 106q-6 23 -6 39q0 20 8 33q-6 10 -6 35q0 16 2 36q18 12 29 13q16 0 33 -13 l14 9q137 -8 170 -9q8 0 22.5 5.5t22.5 5.5q33 0 33 -23q0 -14 -8 -22q6 -12 6 -25q0 -12 -6 -27q6 -16 6 -26q0 -31 -66 -31q-86 0 -37 2q-23 0 -28 -18l4 -11l26 -6q10 0 35 4t39 2h4l15 -10q2 -10 2 -26l-9 -13q8 -20 9 -35q0 -37 -68 -36l-27 4q-14 2 -24 -4v-15l-8 -10 l10 -25h86q47 1 47 -28q0 -16 -8 -29q6 -14 6 -27q0 -12 -8 -22q4 -14 4 -27q0 -37 -49 -32l-6 4q-39 -6 -70 -7q-127 0 -182 -4l-15 9q-16 47 -16 38zM2161 748q4 -10 8 -19q8 0 21.5 3t21.5 3q188 0 223 -6l8 4q-2 23 -4 33l8 12v19q-8 6 -8 16q0 6 4 14.5t4 12.5 q-12 4 -64 3t-71 15l2 10q-8 14 -8 27v6q12 12 12 31l-4 12l8 6q8 -2 25 0q16 2 25 2q8 -2 16 -6q12 6 25 6l8 -4l10 4q0 6 -3 20.5t-3 20.5l4 13l-4 6q-4 0 -15 2h-16q-4 0 -13 -3t-16 -3q-4 0 -21 4t-24 2h-10l-4 6l6 16q-6 8 -6 19q0 4 6 12l-2 16l10 9q-8 0 2 2l115 6 l2 10q0 8 -4 16q6 12 6 29q-2 6 -8 23l4 8l-4 4q-8 0 -23.5 -4t-23.5 -4q-6 0 -18.5 4t-18.5 4q-12 0 -38.5 -3t-39.5 -3l-14 6q-10 2 -16 2q-4 0 -13.5 -4t-13.5 -4h-14l-15 8h-8l-6 -10q0 -8 4 -23.5t4 -21.5q0 -8 -5 -22.5t-5 -22.5q0 -4 4 -13.5t4 -13.5q0 -23 -5 -65 t-5 -64q0 -18 4 -31l-4 -16q0 -10 6 -31l-6 -35q0 -8 2 -23.5t2 -23.5q-10 -20 -10 -28zM2533 856q0 14 11 37q-4 16 -4 43q0 33 6 84l-9 14q8 57 11 84q-12 8 -13 37q0 63 35 64q10 -4 19 -9q12 10 24 11q68 0 82 -9q16 10 80 9l6 -7q8 0 24.5 3.5t24.5 3.5q49 0 66 -25 q20 4 57 -27l2 -14q49 -47 49 -68l-2 -14q14 -20 15 -45q0 -53 -21 -65q6 -47 -37 -66l-4 -8l-30 -8q14 -10 32 -15q16 16 27 17q12 0 29 -6l6 -13q0 -35 -6 -49q4 -12 4 -22q0 -20 -15 -33l15 -31q0 -33 -72 -33q-18 0 -31 11q-20 -10 -26 -11q-33 0 -131 82h-7l-4 -22 q2 -8 4 -25q4 -33 -28 -33q-27 0 -41 9q-12 -6 -29 -7q-16 0 -33 7q-18 -6 -41 -7q-14 0 -28 7l-13 18v8q0 14 5 92zM2562 858q0 -8 5 -24.5t5 -24.5q0 -12 -3 -34.5t-3 -35.5q0 -14 19 -14q12 0 30 14h11q12 -12 30 -12q6 0 15.5 4t15.5 4q2 0 10 -4t10 -4h15l4 6l2 8 q-8 16 -4 31q8 20 8 29v8l8 8l2 8l4 2l4 -4l-2 -16q10 2 43 -22.5t41 -26.5q12 -27 60 -33q12 8 24 8q6 0 19.5 -6t21.5 -6q12 0 27 6l2 6l-12 23l18 84v10l-6 2q-12 -10 -23 -16q-53 18 -79 30l-7 6v11q20 14 31 22q49 2 64 43q-2 8 -2 15q0 8 18 30q2 33 2 49l-16 17 l-2 12q0 8 6 19q-10 27 -39 45q-6 20 -23 28q-8 2 -37 6q-16 25 -112 25q-10 0 -30.5 -5t-31.5 -5q-12 0 -35.5 4t-35.5 4q-8 0 -24.5 -5t-24.5 -5l-11 2l-10 -10v-7q0 10 16 -55q-14 -20 -14 -45q0 -37 12 -45q0 -8 -7 -24.5t-7 -20.5l10 -92q-12 -14 -12 -27zM2720 995 q0 6 4 20.5t4 20.5v2q-8 10 -8 25q0 6 8 14l-4 6l4 7h6l6 -5q14 14 35 15q37 0 39 -21q16 -6 16 -22q0 -4 -2 -6l4 -7q0 -8 3.5 -23.5t3.5 -21.5q-6 -25 -13 -63q-31 -47 -57 -47q-6 4 -10 6q-14 -8 -25 -10l-8 2l-2 8l6 12q-2 18 -2 23q0 2 2 8v12q0 6 -5 21.5t-5 23.5z M2746 985q0 -4 13 -59l8 -6q35 6 35 41v16q0 2 4 9t4 11q-6 6 -6 21q0 55 -29 55l-25 -10l-2 -8l7 -6v-7q0 -10 -4.5 -29.5t-4.5 -27.5z" />
<glyph unicode="_" horiz-adv-x="10182" d="M0 1655q0 -149 82 -258q92 -119 225 -119q139 0 234 133q74 104 73 244q0 96 -41 184q-43 96 -117.5 142.5t-148.5 46.5q-98 0 -174 -66t-108 -162q-25 -72 -25 -145zM45 1655q0 139 79 230t183 91q145 0 223 -151q39 -78 39 -170q0 -147 -86 -242q-78 -82 -176 -82 q-86 0 -152.5 60.5t-93.5 146.5q-16 57 -16 117zM47 16v547h74v-78q35 57 78 78q25 12 53 12q84 0 123 -86q55 86 131 86q115 0 137 -108q6 -31 6 -86v-365h-78v383q0 92 -77 93q-55 0 -84 -50q-25 -41 -25 -98v-328h-76v379q0 98 -71 99q-53 0 -86 -54q-29 -45 -29 -102 v-322h-76zM147 1655q0 -84 41 -146q47 -72 127 -71q121 0 144 143h-51q-21 -86 -89 -86q-66 0 -94 74q-16 41 -16 90q0 102 51 141q25 16 53 17q82 0 93 -95h51q-10 100 -88 140q-29 14 -60 14q-92 0 -137 -98q-25 -53 -25 -123zM739 289q0 -199 117 -266q39 -23 90 -23 q80 0 135 57q49 53 62 133h-74q-35 -108 -121 -108q-121 0 -127 174h328q0 96 -6 135q-16 113 -99 164q-43 25 -94 25q-104 0 -162 -97q-49 -82 -49 -194zM821 332q12 166 129 166q76 0 105 -76q14 -37 16 -90h-250zM889 1278q10 137 49 199q23 35 57 67q55 37 158 115 q66 55 66 133q0 137 -119 137q-115 0 -121 -180h-76v16q0 104 50.5 175t152.5 71q94 0 144 -61.5t50 -157.5q0 -121 -98 -201q-10 -8 -102 -69q-68 -45 -93.5 -78t-33.5 -78h327v-88h-411zM1239 16v547h74v-78q35 57 78 78q25 12 53 12q84 0 121 -86q57 86 133 86 q115 0 137 -108q6 -31 6 -86v-365h-78v383q0 92 -77 93q-55 0 -84 -50q-25 -41 -25 -98v-328h-76v379q0 98 -71 99q-55 0 -89 -54q-27 -45 -26 -102v-322h-76zM1368 1632q0 -243 94 -329q47 -41 111 -41q207 0 207 380q0 262 -101 336q-43 33 -100 33q-211 0 -211 -379z M1450 1630q0 299 125 299q123 0 123 -289q0 -297 -123 -297q-125 0 -125 287zM1884 1632q0 -243 94 -329q45 -41 109 -41q209 0 209 380q0 262 -101 336q-43 33 -100 33q-211 0 -211 -379zM1946 16h69v70q47 -86 131 -86q102 0 154 106q41 82 41 195q0 193 -107 256 q-37 20 -80 21q-82 0 -135 -84v272h-73v-750zM1966 1630q0 299 125 299q123 0 123 -289q0 -297 -125 -297q-123 0 -123 287zM2015 291q0 205 129 205q119 0 119 -201q0 -215 -123 -215q-125 0 -125 211zM2400 1632q0 -243 94 -329q45 -41 109 -41q209 0 209 380 q0 262 -100 336q-45 33 -101 33q-211 0 -211 -379zM2406 289q0 -199 117 -266q39 -23 90 -23q80 0 135 57q49 53 62 133h-74q-33 -108 -121 -108q-121 0 -127 174h328q0 96 -6 135q-16 115 -98 164q-43 25 -95 25q-104 0 -161 -97q-49 -82 -50 -194zM2482 1630 q0 299 125 299q123 0 123 -289q0 -297 -125 -297q-123 0 -123 287zM2488 332q12 166 129 166q76 0 105 -76q16 -37 16 -90h-250zM2908 16v547h72v-94q47 106 121 106q10 0 24 -2v-98q-18 4 -28 4q-72 0 -103 -78q-10 -25 -10 -73v-312h-76zM3146 1278v750h82v-310h325v310 h84v-750h-84v352h-325v-352h-82zM3166 188h74q6 -113 117 -112q106 0 106 88q0 53 -86 78l-65 20q-131 39 -131 150q0 102 79 147q39 20 91 21q78 0 122.5 -46.5t47.5 -125.5h-72q-8 96 -103 96q-94 0 -94 -78q0 -55 78 -78l86 -26q119 -35 119 -140q0 -84 -49 -133 t-133 -49q-179 0 -187 188zM3629 16v113h86v-113h-86zM3766 1278v750h82v-660h311v-90h-393zM3826 160q0 -70 37.5 -115t105.5 -45q90 0 160 88q6 -78 80 -78q16 0 41 8v64q-16 -4 -25 -4q-25 0 -25 33v313q0 63 -38.5 109.5t-135.5 46.5q-135 0 -170 -111q-8 -25 -10 -70 h72q8 105 106 105q100 0 101 -92q0 -57 -39 -64l-125 -18q-55 -10 -88 -43q-47 -47 -47 -127zM3903 168q0 68 74 88q6 0 60 10l43 8q25 4 45 21v-88q0 -55 -43.5 -93t-98.5 -38q-80 0 -80 92zM4207 1552q0 -119 41 -190q37 -61 94 -86q33 -14 71 -14q111 0 164 94 q45 78 45 196q0 117 -45 195q-53 94 -164 94q-109 0 -161 -94q-45 -78 -45 -195zM4284 1552q0 207 129 207q131 0 132 -207q-1 -209 -132 -209q-129 0 -129 209zM4297 291q0 -119 41 -191q37 -61 94 -86q33 -14 74 -14q109 0 163 94q43 78 43 197q0 117 -45 194 q-52 95 -161 95q-111 0 -164 -95q-45 -78 -45 -194zM4375 291q0 207 131 207q129 0 129 -207q0 -209 -129 -209q-131 0 -131 209zM4708 1278v752h76v-279q35 55 78 74q27 12 61 12q100 0 134 -86q16 -43 16 -123v-350h-76v344q0 94 -39 121q-20 12 -51 12q-123 0 -123 -176 v-301h-76zM4801 16v750h75v-750h-75zM5009 16v113h88v-113h-88zM5186 1278v547h71v-78q33 55 80 78q29 12 64 12q96 0 133 -86q16 -37 16 -123v-350h-78v344q0 133 -88 133q-92 0 -119 -110q-4 -25 -4 -66v-301h-75zM5202 276q0 125 45 201q57 100 158 101q160 0 174 -201 h-72q-14 119 -102 119q-127 0 -127 -217q0 -203 118 -203q93 0 111 133h72q-20 -209 -185 -209q-147 0 -182 168q-10 51 -10 108zM5630 291q0 -119 41 -191q37 -61 94 -86q33 -14 74 -14q109 0 164 94q43 78 43 197q0 117 -45 194q-53 95 -162 95t-164 -95q-45 -78 -45 -194 zM5640 1550q0 -199 117 -266q39 -23 90 -22q80 0 135 57q49 53 62 133h-74q-35 -109 -121 -109q-121 0 -127 175h328q0 96 -6 135q-16 113 -99 164q-43 25 -94 24q-104 0 -162 -96q-49 -82 -49 -195zM5708 291q0 207 131 207t131 -207q0 -209 -131 -209t-131 209zM5722 1593 q12 166 129 166q76 0 105 -76q14 -37 16 -90h-250zM6134 16v547h73v-78q35 57 76 78q25 12 56 12q84 0 120 -86q55 86 134 86q115 0 135 -108q6 -31 6 -86v-365h-78v383q0 92 -76 93q-55 0 -84 -50q-25 -41 -24 -98v-328h-76v379q0 98 -74 99q-53 0 -86 -54 q-29 -45 -29 -102v-322h-73zM6142 1278v547h72v-94q47 106 120 106q10 0 25 -4v-96q-18 4 -29 4q-72 0 -104 -78q-8 -25 -8 -76v-309h-76zM6463 1640q0 -227 158 -331q80 -53 187 -54q119 0 217 66q29 16 61 47l-29 47q-113 -100 -241 -100q-137 0 -217 94q-76 88 -76 227 q0 215 145 308q72 45 166 45q162 0 223 -119q29 -61 29 -139q0 -141 -72 -197q-27 -18 -51 -18q-37 0 -37 43q0 20 13 69l55 223h-62l-20 -84q-8 103 -98 103q-92 0 -146 -123q-29 -66 -28 -135q0 -63 26 -109q31 -53 90 -53q82 0 123 106q-2 -12 -2 -20q0 -82 80 -82 q68 0 121 66q66 80 65 211q0 203 -151 278q-74 39 -164 39q-178 0 -283 -143q-82 -115 -82 -265zM6709 1606q0 131 72 190q25 20 47 21q63 0 64 -84q0 -131 -66 -199q-27 -27 -53 -27q-63 0 -64 99zM6791 16l195 750h63l-194 -750h-64zM7039 487v74h61v96q0 119 115 119 q16 0 37 -2v-84q-20 2 -29 2q-47 0 -47 -63v-68h76v-74h-76v-471h-76v471h-61zM7274 1421q0 -70 38 -114.5t104 -44.5q90 0 160 88q6 -78 79 -78q16 0 43 8v63q-16 -4 -26 -4q-25 0 -25 33v314q0 63 -35 106q-43 49 -137 49q-137 0 -172 -110q-6 -27 -8 -70h72 q6 104 106 104t101 -92q0 -57 -39 -63l-125 -21q-55 -8 -90 -41q-45 -47 -46 -127zM7297 291q0 -119 41 -191q35 -61 94 -86q31 -14 72 -14q111 0 164 94q45 78 45 197q0 117 -45 194q-55 95 -164 95t-164 -95q-43 -78 -43 -194zM7350 1430q0 68 76 88q4 0 57 10l43 8 q25 4 45 20v-88q0 -55 -43 -93t-98 -38q-80 0 -80 93zM7373 291q0 207 131 207t131 -207q0 -209 -131 -209t-131 209zM7743 1552q0 -119 41 -190q37 -61 95 -86q33 -14 73 -14q109 0 164 94q43 78 43 196q0 117 -43 195q-55 94 -164 94t-163 -94q-45 -78 -46 -195zM7799 16 v547h71v-78q33 55 80 78q31 14 64 15q98 0 133 -89q16 -37 16 -122v-351h-75v344q0 133 -91 134q-92 0 -116 -111q-6 -25 -6 -66v-301h-76zM7821 1552q0 207 131 207t131 -207q0 -209 -131 -209t-131 209zM8229 487v76h61v152h76v-152h72v-76h-72v-356q0 -43 43 -43 q12 0 29 2v-74q-23 -8 -56 -8q-92 0 -92 119v360h-61zM8249 1278v750h76v-750h-76zM8456 1278v113h88v-113h-88zM8514 16v547h69v-78q35 55 82 78q29 14 64 15q96 0 133 -89q16 -37 16 -122v-351h-78v344q0 133 -88 134q-92 0 -119 -111q-6 -25 -6 -66v-301h-73zM8649 1538 q0 125 45 201q57 98 157 98q160 0 177 -199h-72q-14 119 -102 119q-127 0 -127 -217q0 -203 116 -203q95 0 113 131h72q-23 -207 -187 -206q-145 0 -182 168q-10 51 -10 108zM8968 289q0 -199 115 -266q41 -23 92 -23q80 0 132 55.5t65 134.5h-74q-35 -108 -121 -108 q-123 0 -127 174h328q0 96 -6 135q-18 115 -101 164q-41 25 -92 25q-106 0 -164 -97q-47 -82 -47 -194zM9050 332q12 166 127 166q76 0 107 -76q14 -37 16 -90h-250zM9077 1552q0 -119 43 -190q35 -61 92 -86q33 -14 74 -14q109 0 163 94q45 78 46 196q0 117 -46 195 q-54 94 -163 94t-164 -94q-45 -78 -45 -195zM9155 1552q0 207 131 207t131 -207q0 -209 -131 -209t-131 209zM9470 16v547h70v-94q47 106 122 106q10 0 25 -2v-98q-20 4 -29 4q-74 0 -104 -78q-10 -25 -10 -73v-312h-74zM9581 1278v547h73v-78q35 57 78 78q25 12 53 12 q84 0 121 -86q57 86 133 86q115 0 138 -108q6 -31 6 -87v-364h-78v383q0 92 -78 92q-55 0 -84 -49q-25 -41 -25 -98v-328h-75v379q0 98 -72 98q-55 0 -88 -53q-27 -45 -27 -103v-321h-75z" />
<glyph unicode="`" horiz-adv-x="1038" d="M203 1722l643 -139l-533 383zM354 1798l27 41l301 -192z" />
<glyph unicode="a" d="M6 10v135q150 6 205 136q111 256 223 514q184 432 184 481q0 63 -81 63q-25 0 -52 -4l2 164q41 10 99 10q188 0 280 -123q41 57 125 91q74 30 149 30h5q43 0 86 -8v-147q-51 -2 -88 -27q-45 -29 -45 -76q0 -31 20 -69l465 -899q75 -145 156 -145q5 0 10 1v-141 q-16 -4 -45 -4q-195 0 -285 112q-113 -106 -317 -106q-35 0 -68 4v135q63 0 115 19q72 25 72 73q0 29 -37 99q-27 45 -54 92h-634q-53 -127 -54 -160q0 -123 178 -123h11v-135q-29 -6 -70 -6q-141 0 -221 86q-121 -90 -246 -90q-47 0 -88 18zM592 639l416 -2l-232 463z M836 1212l483 -952q0 84 -33 148l-366 735q-20 37 -84 69z" />
<glyph unicode="b" horiz-adv-x="1447" d="M76 1362v139q35 4 86 4q213 0 287 -80q174 100 385 101q199 0 356 -115q172 -127 172 -315q0 -170 -178 -271q100 -43 168 -159q63 -109 63 -220q0 -225 -207 -354q-174 -108 -413 -108h-4q-211 0 -355 116q-51 -51 -141 -80q-79 -26 -156 -26h-6l-20 2v145 q66 16 105.5 70.5t39.5 124.5v807q0 100 -39 160q-42 61 -115 61q-14 0 -28 -2zM307 209q82 27 82 172v688q0 168 -65 236q24 -41 24 -162v-10v-717q0 -164 -41 -207zM616 891q35 -2 66 -2q311 0 311 254q0 94 -45 157q-51 72 -141 72q-66 0 -121 -22q-70 -33 -70 -93v-366z M621 342q0 -178 167 -178q119 0 201 83t82 206q0 113 -82 190.5t-196 77.5q-80 0 -172 -43v-336zM1016 1317q67 -73 67 -186q0 -93 -55 -181q94 87 94 193q0 98 -106 174zM1071 231q129 99 129 228q0 104 -113 192q66 -90 66 -209q0 -115 -82 -211z" />
<glyph unicode="c" horiz-adv-x="1306" d="M61 721q0 328 148 549q170 254 481 254q172 0 350 -101l39 68l125 -8v-500l-121 -4q-84 371 -323 371q-178 0 -268 -213q-70 -160 -70 -365q0 -213 72 -375q94 -213 280 -213q135 0 238 105q94 96 121 233l147 -55q-25 -203 -195 -347.5t-374 -144.5q-303 0 -482 226 q-168 207 -168 520zM217 401q74 -184 219 -274q-109 109 -174 295q-59 172 -59 338q0 246 116 500q-165 -167 -165 -502q0 -197 63 -357z" />
<glyph unicode="d" horiz-adv-x="1368" d="M53 1364v137q33 6 80 6q186 0 242 -110q124 114 348 114h4q322 0 485 -219q148 -194 148 -528t-137 -535q-161 -235 -477 -235h-3q-229 0 -340 127q-47 -59 -130 -93t-162 -34q-29 0 -56 4v131q68 14 111 68.5t43 126.5v804q0 98 -29 162q-36 75 -107 75q-9 0 -20 -1z M256 199q80 27 80 172v688q0 170 -64 235q25 -43 25 -172v-716q0 -164 -41 -207zM551 379q0 -74 31 -131q39 -70 106 -70q172 0 244 242q47 154 47 383q0 188 -45 338q-66 223 -205 223q-178 0 -178 -219v-766zM948 236q162 141 162 534q0 391 -160 535q111 -207 111 -517 q0 -346 -113 -552z" />
<glyph unicode="e" horiz-adv-x="1411" d="M82 1356v149l41 2h25q227 0 270 -104q152 104 330 104q66 0 170 -31.5t147 -31.5q76 0 88 67l113 -55l2 -317l-117 -37q-20 100 -108.5 161.5t-192.5 61.5q-147 0 -203 -82q-39 -61 -39 -199v-83q2 -55 2 -87q37 -16 80 -16q139 0 148 203l143 -6q2 -16 2 -43 q0 -203 -90 -226q96 -72 106 -229h-163q-29 74 -50 96q-33 33 -104 33q-47 0 -70 -31q0 -225 15 -293q39 -186 188 -186q162 0 260 86q106 90 113 252l166 -20l-37 -496h-111l-55 94q-166 -96 -358 -96q-186 0 -318 119q-131 -121 -274 -121q-35 0 -68 10v152q63 0 96 75 q27 57 27 129l-2 750q0 102 -35 170q-39 78 -113 78q-12 0 -24 -2zM307 199q84 27 84 172v688q0 57 -16 125q-20 78 -51 110q24 -41 24 -162v-10v-716q0 -164 -41 -207z" />
<glyph unicode="f" horiz-adv-x="1253" d="M63 1376v129h33h26q203 0 298 -88q170 98 307 99q100 0 207 -50q41 -45 84 -45q49 0 72 70l98 -29l51 -393l-162 -22q-127 299 -350 299q-68 0 -113 -38t-45 -106v-332q16 -4 39 -4q160 0 193 181h155v-43q0 -60 -4 -86q-18 -82 -94 -107q102 -78 103 -213q0 -20 -5 -41 l-149 -4q-18 55 -61.5 97t-96.5 42q-59 0 -71 -6l-3 -262q0 -113 46 -188q53 -92 157 -95v-149q-18 -4 -51 -4q-168 0 -272 121q-119 -115 -310 -115q-35 0 -71 6v137q66 14 102.5 73.5t36.5 129.5v834q0 82 -35 139q-37 64 -102 64q-6 0 -13 -1zM256 219q86 27 86 172v688 q0 55 -18 125q-20 78 -52 111q25 -43 25 -172v-717q0 -164 -41 -207z" />
<glyph unicode="g" horiz-adv-x="1343" d="M150 1292q184 236 471 236q170 0 303 -72l10 57l164 -30l94 -379l-152 -39q-20 127 -116.5 216t-223.5 89q-190 0 -280 -231q-63 -164 -64 -389q0 -221 56 -371q80 -215 260 -215q84 0 142 47t58 131v195q0 66 -49 113.5t-118 62.5v166q195 -10 321 -121q80 90 283 96 v-154q-127 -41 -127 -245v-445h-205l-64 58q-131 -82 -295 -82q-86 0 -143 18q-495 154 -495 772q0 297 170 516zM74 765q0 -352 239 -593q-174 279 -174 621q0 274 131 510q-90 -96 -143 -252q-53 -145 -53 -286zM920 674q43 -74 43 -266q0 -49 -3.5 -129t-3.5 -103l50 -45 l2 373q0 45 -25 100q-27 66 -63 70z" />
<glyph unicode="h" horiz-adv-x="1679" d="M86 143q82 8 141 54q68 51 68 127l-2 870q0 82 -49 129q-43 42 -114 42q-9 0 -19 -1l-2 137q33 6 79 6q168 0 271 -80q106 80 239 80q66 0 125 -24v-123q-78 -4 -131 -47q-57 -49 -57 -123l2 -258h448v119q2 80 2 120q0 178 -174 193v125q57 16 129 16q156 0 232 -94 q98 96 239 96q53 0 103 -16l2 -131h-14h-7q-65 0 -104 -33q-47 -37 -47 -106v-877q0 -182 172 -201l2 -139q-43 -6 -100 -6q-178 0 -263 86q-100 -88 -268 -88q-45 0 -92 8v135q84 2 135 72q47 63 47 151l2 363l-448 -2v-408q0 -168 186 -178v-139q-20 -2 -55 -2 q-215 0 -299 90q-113 -88 -270 -88q-53 0 -107 14zM334 219q43 14 69 74q23 49 23 98v688q0 55 -21.5 128t-54.5 108q25 -43 25 -172v-717q0 -164 -41 -207zM1122 219q43 14 70 74q22 49 22 98v688q0 55 -21.5 128t-53.5 108q24 -41 24 -162v-10v-717q0 -164 -41 -207z" />
<glyph unicode="i" horiz-adv-x="841" d="M104 1352v137q47 20 113 20q129 0 223 -98q78 102 236 102q45 0 94 -12l2 -151q-66 -2 -107.5 -44t-41.5 -108v-901q0 -143 137 -164v-131q-29 -6 -70 -6q-176 0 -270 117q-34 -55 -108 -87q-69 -30 -136 -30h-8l-41 2v135q66 4 103.5 55.5t37.5 118.5l-2 842 q0 204 -145 204q-8 0 -17 -1zM317 219q43 14 66 74q18 47 18 98v688q0 57 -18 125q-18 78 -51 111q26 -41 26 -163v-9v-717q0 -164 -41 -207z" />
<glyph unicode="j" horiz-adv-x="1363" d="M51 340q0 100 61.5 179t157.5 79q94 0 162 -62.5t68 -154.5q0 -121 -99 -180q61 -98 156 -99q92 0 160.5 73t68.5 167v786q0 98 -53 162t-149 66v139q51 12 123 12q195 0 292 -112q39 53 115 84q66 28 134 28h5q33 0 68 -6v-155h-7q-69 0 -118 -39q-51 -41 -51 -113v-600 q0 -623 -567 -623q-190 0 -345 86q-182 106 -182 283zM139 330q0 -86 66 -135q-31 37 -31 98q0 31 6 59q35 127 96 162q-9 1 -17 1q-56 0 -89 -58q-31 -55 -31 -127zM821 207q90 51 90 151v772q0 141 -73 177q31 -55 30 -121l2 -834q0 -96 -49 -145z" />
<glyph unicode="k" horiz-adv-x="1490" d="M-10 -2v137q76 12 121 82q39 61 39 143v768q0 102 -21 150q-33 70 -125 72v141q63 16 141 16q152 0 217 -73q33 73 166 73h4q49 0 107 -12v-141q-66 -10 -105.5 -63.5t-39.5 -121.5v-295l354 345q39 35 39 77q0 53 -101 54l2 143q43 12 101 12q125 0 192 -73 q85 75 198 75h3q47 0 92 -18v-143h-8h-6q-83 0 -182 -99l-271 -272l314 -651q29 -61 108.5 -121t138.5 -60v-139q-53 -16 -127 -16q-158 0 -260 90q-102 -84 -239 -84q-49 0 -97 14l3 158q104 16 104 80q0 14 -201 446l-149 -153v-199q0 -78 41 -126q36 -43 102 -43 q8 0 17 1v-170q-25 -6 -62 -6q-150 0 -240 110q-114 -112 -304 -112h-3q-31 0 -63 4zM207 219q80 27 80 172v688q0 170 -64 236q25 -43 25 -172v-717q0 -164 -41 -207zM717 772q72 -145 143 -291q90 -200 90 -293v-8q25 57 25 123q0 63 -92 256q-66 127 -129 254z" />
<glyph unicode="l" horiz-adv-x="1306" d="M63 1360v137q41 8 97 8q176 0 272 -100q92 104 268 104q37 0 74 -6v-145h-6h-11q-70 0 -111 -48q-44 -52 -44 -134v-875q82 -49 195 -49q262 0 415 334l119 -64l-127 -524h-143l-35 65q-156 -69 -323 -69h-5q-193 0 -295 117q-92 -113 -225 -113q-53 0 -106 22v146 q86 0 137 72q45 63 45 151l2 791q0 154 -193 180zM299 219q88 27 88 172l-2 688q0 55 -18 125q-20 78 -52 111q25 -43 25 -172v-717q0 -164 -41 -207z" />
<glyph unicode="m" horiz-adv-x="1966" d="M68 -2v164q82 6 137 60t55 138v752q0 221 -179 221h-3v162h504l422 -637l446 637h422l2 -182h-6q-64 0 -103 -43q-41 -45 -41 -113v-788q1 -174 183 -217l-2 -148q-35 -6 -86 -6q-190 0 -283 98q-43 -51 -143 -80q-79 -22 -159 -22h-7q-41 0 -84 4v147q92 8 151.5 74 t59.5 160v553l-434 -580l-447 652v-637q0 -160 182 -215v-150q-33 -4 -80 -4q-166 0 -223 84q-82 -88 -225 -88q-29 0 -59 4zM467 1196l444 -666l33 35l-393 580q-33 47 -84 51zM1360 188q63 20 102 76.5t39 122.5v762l-39 -53l-2 -682q0 -170 -100 -226z" />
<glyph unicode="n" horiz-adv-x="1583" d="M92 1329v166h350l738 -831v483q0 84 -33 137q-43 61 -121 62v157q23 4 57 4q139 0 215 -90q55 92 203 92q20 0 45 -2v-166q-63 -2 -105 -43t-42 -104v-1184h-152l-690 795v-463q0 -190 155 -190h11v-148q-31 -12 -78 -12q-119 0 -205 86q-106 -84 -229 -84q-18 0 -35 2 v151q63 6 103 53.5t40 112.5v758q0 111 -55 182q-59 76 -166 76h-6zM504 1018l719 -828v66l-719 825v-63z" />
<glyph unicode="o" horiz-adv-x="1351" d="M41 745q0 307 174 537q190 252 490 252q289 0 475 -252q168 -229 168 -528q0 -309 -170 -539q-188 -252 -488 -252q-289 0 -477 252q-172 231 -172 530zM137 741q0 -317 246 -600q-186 317 -186 635q0 279 145 531q-92 -106 -148.5 -264t-56.5 -302zM449 721 q0 -176 53 -350q72 -236 203 -236q225 1 225 572q0 199 -37 368q-59 264 -188 264q-152 0 -218 -245q-38 -150 -38 -362v-11zM905 1292l6 -8q121 -256 121 -569q0 -326 -119 -539q185 230 185 537q0 313 -193 579z" />
<glyph unicode="p" horiz-adv-x="1345" d="M74 -4v133q66 0 110.5 38t44.5 101v895q0 74 -36 121q-41 51 -110 51h-5v164q37 6 88 6q182 0 266 -104q168 121 344 121q233 0 387 -158t154 -391q0 -231 -153.5 -389t-385.5 -158q-98 0 -182 45v-184q0 -72 49 -107q39 -28 94 -28q14 0 29 2v-146q-55 -18 -125 -18 q-139 0 -217 98q-100 -98 -279 -98q-37 0 -73 6zM268 209q80 27 80 172v688q0 170 -65 236q26 -41 26 -163v-9v-717q0 -164 -41 -207zM586 676q49 -27 112 -27q141 0 213 119q60 96 60 246q0 45 -4 80q-8 74 -58 149q-57 92 -125 92q-78 0 -137 -54t-59 -130zM946 651 q70 66 115 167.5t45 195.5q0 164 -129 309q84 -147 84 -334q0 -190 -115 -338z" />
<glyph unicode="q" horiz-adv-x="1425" d="M51 745q0 307 174 537q190 252 490 252q289 0 475 -252q168 -229 168 -528q0 -207 -84 -392q-88 -193 -242 -299q67 -65 112 -65h1q55 0 104 57q41 47 62 109q104 -96 104 -207q0 -98 -68.5 -169t-164.5 -71q-205 0 -369 256q-55 -10 -113 -10q-289 0 -477 252 q-172 229 -172 530zM147 741q0 -317 246 -600q-192 324 -192 632q0 271 151 534q-92 -106 -148.5 -264t-56.5 -302zM459 721q0 -176 53 -350q72 -236 203 -236h10q-37 78 -107 256l140 68q37 -78 114 -197q68 150 68 445q0 199 -37 368q-59 264 -188 264q-152 0 -217 -245 q-39 -154 -39 -373zM922 1282q120 -254 120 -562v-5q0 -317 -114 -531q180 228 180 529q0 303 -186 569z" />
<glyph unicode="r" horiz-adv-x="1519" d="M4 1321v160q72 32 157 32h5q158 0 242 -127q61 61 170 103q102 37 194 37q217 0 357.5 -144.5t140.5 -361.5q0 -131 -78 -224.5t-207 -117.5q96 -49 160 -158q41 -88 83 -171t93 -83q68 0 135 125q45 -81 45 -153q0 -104 -85 -174t-191 -70q-190 0 -289 162 q-61 152 -121 301q-66 161 -179 161h-1q-39 0 -72 -16q-41 -23 -41 -59v-185q0 -74 45 -131t117 -59v-160q-41 -8 -96 -8q-168 0 -223 106q-85 -114 -237 -114h-3q-55 0 -115 20v133q66 8 107 58.5t41 115.5v842q0 168 -109 168q-20 0 -45 -8zM205 199q43 16 67 75 q23 50 23 99v698q0 57 -19 123q-23 76 -55 111q25 -43 25 -172v-727q0 -164 -41 -207zM532 791q41 -10 78 -11q143 0 230.5 86.5t87.5 229.5q0 92 -41 147q-45 63 -133 64q-221 0 -222 -189v-327zM856 571q31 -20 74 -143q55 -158 84 -209q59 -106 139 -106q-72 47 -143 243 q-68 184 -154 215zM946 1292q74 -94 74 -221q0 -98 -57 -186q108 98 108 217q0 111 -125 190z" />
<glyph unicode="s" horiz-adv-x="1284" d="M72 1067q0 207 155 336q145 121 359 121q197 0 403 -111l23 74l116 -17l23 -487l-123 -10q-88 389 -354 389q-94 0 -162 -74t-68 -170q0 -76 125 -123q131 -37 262 -73q166 -49 232 -117q145 -150 145 -330q0 -219 -180 -362q-168 -135 -391 -136q-100 0 -224 51.5 t-116 51.5q-27 0 -27 -39q0 -9 2 -21h-155l-23 541l146 10q37 -127 157 -260q134 -149 248 -149h2q90 0 157.5 61.5t67.5 151.5q0 152 -206 211q-379 109 -387 112q-207 106 -207 369zM180 1034q0 -141 103 -227q76 -66 229 -109q125 -31 250 -61q66 -18 125 -107.5 t59 -158.5q0 -33 -8 -66q39 69 39 135q0 238 -426 299q-152 23 -252 123q-109 104 -111 254q-8 -43 -8 -82z" />
<glyph unicode="t" horiz-adv-x="1337" d="M2 950v516l82 31q43 -49 129 -49q51 0 141 38t146 38q113 0 168 -88q23 37 100 65q68 27 119 27q66 0 144.5 -43t117.5 -43q49 0 55 55l96 -18v-506l-149 -84q-18 199 -31 241q-41 170 -145 170q-53 0 -99.5 -41.5t-46.5 -93.5v-829q0 -74 37 -127q37 -57 101 -57h8 l2 -144q-33 -10 -78 -10q-143 0 -221 104q-94 -104 -285 -104q-25 0 -51 2v139q59 10 97 54.5t38 103.5v877q0 124 -106 124h-2q-117 0 -181 -163q-45 -117 -51 -258zM530 209q84 27 84 172l-2 688q0 168 -67 236q26 -41 26 -163v-9v-717q0 -164 -41 -207z" />
<glyph unicode="u" horiz-adv-x="1443" d="M63 1356v143q39 10 97 10q158 0 237 -102q68 102 230 102q37 0 75 -6v-147q-66 -2 -105.5 -49t-39.5 -115v-727q0 -127 66.5 -202t197.5 -75q117 0 180.5 77t63.5 196v659q0 98 -41 160q-49 72 -141 74l-2 151q27 4 63 4q139 0 211 -82q55 80 162 80q45 0 92 -20l2 -146 h-12q-63 0 -98 -42t-35 -107v-774q0 -190 -162 -320q-150 -123 -344 -123q-229 0 -385 157t-156 386v656q0 80 -37 131q-36 53 -96 53q-11 0 -23 -2zM297 1303q8 -41 8 -156v-619q0 -147 88 -290q-39 121 -39 280l2 543q0 143 -59 242z" />
<glyph unicode="v" horiz-adv-x="1591" d="M12 1331v156q55 16 129 16q182 0 262 -125q49 61 148 99q85 30 171 30h5q35 0 70 -4l2 -164q-66 -2 -115 -28q-61 -35 -61 -94q0 -43 125 -388q78 -209 155 -415l256 719q14 41 15 75q0 119 -144 133v158q35 8 76 8q115 0 184 -77q89 79 212 79h3q41 0 80 -10v-162h-12 h-10q-130 0 -205 -209l-416 -1130h-287l-393 1116q-76 217 -250 217zM285 1300l399 -1148l51 2l-297 837q-43 125 -61 164q-41 96 -92 145z" />
<glyph unicode="w" horiz-adv-x="2056" d="M4 1339l2 160q33 6 64 6q158 0 249 -100q109 104 250 104q66 0 113 -18l2 -145q-74 -6 -106 -25q-47 -27 -48 -94q0 -63 64 -264q43 -135 86 -271l211 811l225 2l287 -868q49 160 98 319q76 252 76 299q0 53 -51 80q-40 21 -92 21h-9v147q29 8 60 8q102 0 196 -67 q106 61 213 61q47 0 74 -10v-160q-23 6 -43 6q-100 0 -145 -161l-330 -1182l-231 2l-261 737l-196 -737h-250l-348 1192q-37 127 -160 147zM215 1303q29 -43 66 -170l294 -1027h43l-284 981q-47 162 -119 216zM961 1128l333 -1013l49 -2l-364 1104z" />
<glyph unicode="x" horiz-adv-x="1525" d="M41 1329v166q59 16 133 15q147 0 213 -74q93 73 248 73h4q49 0 100 -10v-149h-14h-11q-65 0 -65 -43q0 -29 72 -142q45 -72 92 -141q45 61 90 123q74 106 74 133q0 53 -117 61v158q29 6 72 6q127 0 198 -57q78 59 193 59q41 0 82 -10v-154q-121 -31 -203 -151l-252 -383 l271 -436q122 -198 254 -198q10 0 20 1v-164q-55 -14 -129 -14q-162 0 -258 88q-45 -90 -240 -90q-53 0 -114 10v131q135 16 135 94q0 37 -72 140q-47 66 -94 131q-49 -70 -100 -140q-72 -109 -72 -157q0 -68 94 -70l2 -133q-39 -10 -88 -10q-133 0 -197 80 q-76 -80 -210 -80h-13l-33 2v164q139 23 205 121l283 428l-240 380q-78 125 -125 170q-75 73 -163 73q-12 0 -25 -1zM295 1333q29 -31 90 -125l440 -686q51 -74 105 -149q63 -98 63 -164q13 20 13 57q0 63 -48 137l-458 703q-57 86 -90 127q-59 72 -115 100z" />
<glyph unicode="y" horiz-adv-x="1513" d="M10 1341v158q59 14 133 14q178 0 238 -102q66 98 231 98q43 0 90 -8l-2 -153q-33 8 -57 8q-59 0 -59 -43q0 -31 104 -203q68 -102 133 -207q63 86 129 174q98 143 99 203q0 72 -104 72q-18 0 -38 -2l-2 147q59 10 129 10q172 0 211 -86q104 86 233 86h11l27 -2l-3 -164 q-72 -2 -153 -65q-68 -53 -115 -123l-321 -489l2 -375q0 -57 53 -96q48 -35 108 -35h13v-142q-61 -20 -135 -20q-156 0 -215 113q-94 -111 -258 -111q-61 0 -125 20v136h8q68 0 114 33.5t46 99.5v344l-322 532q-63 104 -70 115q-53 68 -108 68q-12 0 -25 -5zM197 1358 q47 -18 221 -322q104 -184 209 -370l2 -58q2 -57 2 -106q0 -281 -53 -316q88 35 88 133v365l-324 549q-20 35 -63 76q-49 45 -82 49z" />
<glyph unicode="z" horiz-adv-x="1497" d="M55 250l836 1034q-78 29 -152 29q-133 0 -247 -101q-102 -92 -152 -225l-133 47v469l164 2l14 -108q134 116 350 116h4q156 0 197 -22q186 -106 414 -107q49 1 96 5l-866 -1135q106 -53 206 -53q147 0 283 116q121 102 184 252l166 -43l-39 -526h-155q-23 68 -105 68 q-53 0 -164.5 -39t-187.5 -39q-70 0 -190.5 30.5t-178.5 30.5q-133 0 -219 -61zM180 285l23 -39l835 1034l-39 10z" />
<glyph unicode="|" horiz-adv-x="1585" d="M102 553q23 123 60 195l-17 6q27 72 66 98l12 -16q-31 -23 -51 -74q25 39 59 49q76 113 181 174q-51 -12 -95 -63l2 -2q-4 -4 -10 -9q-27 -25 -55 -65l-16 10q12 18 22 31q-16 -12 -31 -35l-18 10q14 23 31 39l-23 -12l-2 -2q-74 -55 -80 -166l-20 2q8 117 84 178v2h4 q4 55 117 103l2 6l4 -2q109 92 243 94q225 4 494 -178q111 -76 197 -208t116 -265q37 -51 47 -119l-20 -4q-10 68 -47 114q-51 238 -266 433q-70 61 -191 118q-113 51 -213 74q-72 14 -123 14q-115 -2 -229 -92q-23 -39 -60 -69q8 6 23 8q47 59 107 76q49 51 153 53 q127 2 268 -53q266 -100 404 -310q84 -127 115 -241q63 -88 71 -222h-20q-4 78 -35 150q16 -78 16 -137q2 -70 -16 -107l-19 11q16 33 15 94q0 70 -25 172q-25 111 -55 164q-45 76 -68 110q-41 61 -80 103q-111 117 -311 194q-137 53 -260 51q-94 -2 -139 -49q61 35 145 37 q152 2 314 -88h8q57 2 183 -101.5t222 -326.5q47 -111 49 -254q2 -57 -8 -113l-20 4q8 51 8 119q-4 182 -115.5 371.5t-271.5 267.5q143 -100 244.5 -266t126.5 -338l2 -4l-2 -2q4 -31 4 -57q2 -115 -66 -195q-39 -47 -57 -66q-35 -31 -72 -47q-57 -59 -119 -61 q-92 -2 -178 121q-55 80 -129 258t-98 217q12 -127 141 -377q123 -236 268 -231q86 0 181 86l14 -17q-43 -37 -80 -59q68 29 146 72l10 -19q-203 -113 -324 -115q-18 0 -33 2q-16 -4 -32 -4q-100 -2 -181.5 110t-95.5 136q-53 80 -78 146v8q0 31 -16 55q18 -123 78 -219 q94 -150 125 -180q78 -80 198 -78h50q39 2 94 31q84 43 188 73l10 4l7 -20l-11 -2q-104 -33 -184 -74q-61 -31 -104 -33h-50q-166 -2 -280 172q-131 203 -146 349l-4 4l4 4q-43 129 -45 231q-2 68 17 121l18 -6q-14 -49 -14 -113q2 -100 43 -229q45 -37 43 -94 q57 -147 184 -293q74 -84 148 -82q18 0 34 4q12 -2 35 -2q31 0 70 10q-8 -2 -17 -2q-172 -2 -288 246q-137 291 -144 385q-2 14 -4 41l2 2q-6 27 -6 55q-2 123 82 144q27 4 78 16q-27 12 -47 12q-31 -2 -58 -22l-12 16q33 27 72 27q25 0 63 -19q127 -61 232 -229 q20 -33 88 -174q31 -61 86 -187q6 -14 8 -32q4 10 4 24t-4 29l-6 10l4 2q-10 41 -37 88q-4 8 -12 25q-12 35 -37 102q-111 260 -293 355q-59 31 -131 28q-143 -2 -143 -139h-21q0 158 158 160q82 2 145 -31q188 -96 301 -360q12 -37 39 -107q6 -8 15 -27q29 -53 36 -96 q10 -14 17 -14q8 0 8 22q-147 406 -274 508q-84 68 -115 84q-49 27 -139 41l4 21q92 -16 143 -43q33 -16 119 -86q133 -106 283 -523q-2 -47 -25 -47q-6 0 -14 6v-6q2 -72 -58 -71q-59 -2 -114 108q-117 227 -125 242q-106 193 -158 190h-4q-6 -25 -6 -45q0 -35 39 -96 q41 -68 178 -311q82 -152 164 -150q20 0 41 12q0 2 2 3q98 72 96 139q-2 82 -96 278q-92 188 -156 256q-127 129 -285 176q-12 -12 -84 -18q-80 -6 -131 -37q-76 -51 -114 -172l-21 6q68 203 277 226q23 0 57 8l-2 -2l2 -2l6 8q-10 -2 -22 -2q-8 0 -27 3t-25 3 q-49 0 -104 -23q-203 -80 -197 -395q2 -72 13 -125q31 -170 94 -332q88 -225 184 -268q8 -8 23 -6q14 0 32 6q23 -39 125 -35v-20l-10 -2q-70 -2 -108 20l2 -8q-23 -6 -45 -6q-45 0 -91 20l9 19q43 -18 82 -19q20 0 30 5l-2 2q-14 -2 -24 -2q-14 -2 -35 10q-37 23 -58 41 q-82 82 -151 268q-59 158 -78 303q-12 80 -12 129q-6 303 178 402q-213 -84 -209 -340q0 -29 6 -70q2 -25 4 -76q45 -432 281 -637l-12 -16q-182 154 -256 459q-27 113 -41 307q-2 -47 -2 -98q8 -416 237 -617l-12 -16q-141 125 -197 293q-45 133 -49 348q-4 303 100 442 q-72 -72 -110 -240q-33 -139 -31 -270q0 -49 6 -100l-20 -2q-6 53 -6 102q-2 115 26 250q33 156 88 235l-22 -32v-6h-6q-92 -150 -99 -351l-20 2q4 186 86 332q-57 -51 -88 -227zM127 854l37 64l2 -3l53 72l17 -12l-54 -72h-2l-35 -59zM156 954q43 74 88 74q10 0 18 -4 q141 117 297 119q59 0 113 -15q14 -4 41 -12q47 -10 143 -37q297 -111 465 -407q70 -4 123 -180l-21 -5q-37 123 -86 156q74 -133 86 -213l-20 -2q-12 84 -94 223q-4 4 -9 15q-76 135 -204.5 244.5t-274.5 158.5q-31 10 -114 27q-14 6 -39 14q-51 12 -109 12 q-61 -2 -160 -37q-109 -41 -133 -86v2l-22 -20l-15 14l15 13q-35 -2 -70 -64zM172 1026q201 131 268 137q43 10 131 19q70 2 156 -27q113 -37 154 -51q82 -33 143 -72q215 -135 428 -459l-16 -10q-276 418 -584 531q-43 14 -129 41.5t-152 25.5q-104 -2 -204 -47 q-61 -27 -183 -104zM184 395v68h21v-72q6 -327 131 -483l-14 -12q-131 156 -138 499zM229 915q41 23 68 56q-53 -29 -68 -56zM233 1104q49 43 78 45h11v-21q-31 0 -76 -41zM250 1165q98 59 166 62q31 0 49 -10l78 16l4 -21l-76 -16q-12 -31 -59 -33q-39 0 -80 -24l-10 16 q45 29 100 29q20 0 29 18q-14 6 -33 6q-59 -2 -158 -61zM266 1223q121 43 207 43q28 2 53 -4l-4 -19q-23 4 -47 4q-84 -2 -203 -45zM279 727q43 92 132 144.5t193 52.5h10v-9q27 -8 50 -8q22 1 32 11q-88 29 -159 26q-190 -2 -258 -217zM289 1272q61 31 145 33q35 -1 68 -5 l-4 -20q-33 4 -68 4q-74 -2 -133 -31zM305 870q111 115 270 119q41 0 152 -22q25 -4 72 -19q94 -37 224 -171t169 -228q49 -127 84 -197q-41 186 -162 346q-125 168 -291 244q-137 66 -256 64q-143 -4 -262 -136zM330 1370l98 14l4 -18q14 8 39 16l6 -20q-33 -8 -49 -23 q16 -6 27 -6q8 0 18 10l14 -16q-16 -12 -36 -14q-14 0 -37 10v-2l-6 2l-70 -16l-4 20l72 16q8 12 20 19l-92 -12zM332 518q0 66 6 123l20 -2q-8 -78 -8 -154q8 -397 230 -659q34 -41 57 -59l-12 -17q-141 121 -222 352q-68 199 -71 416zM336 -135l18 10q21 -39 82 -84 l-12 -16q-66 47 -88 90zM369 522q-2 100 49 205q16 35 20 41q14 25 33 33l10 -19q-25 -12 -49 -71l-8 2l6 -4q-43 -49 -41 -185q4 -176 60 -374q27 -92 100 -213q84 -137 153 -175q39 -23 125 -20q47 0 107 10l2 -20q-57 -10 -105 -11q-96 -2 -139 23q-74 43 -160 180 q-76 123 -102 219q-57 201 -61 379zM369 1395v20l20 2q340 8 733 -200q197 -107 338 -222l-14 -16q-211 178 -506 299q-315 127 -571 117zM371 1440v20q201 0 411 -61q328 -96 443 -201l6 -2q-43 51 -150 109q-236 129 -630 190l2 21q532 -82 766 -279q14 -14 47 -45l55 -6 q29 -14 82 -47l-12 -17q-23 16 -76 43l-21 4q41 -37 129 -96l-8 -18q-37 16 -158 119l-43 4q-57 55 -206 120q-127 53 -232 80q-233 61 -405 62zM408 494q-6 344 223 348h31l-3 -21h-22q-213 -4 -207 -321q0 -68 10 -135q27 -170 117 -353q115 -229 242 -239l-2 -21l-11 2 q-39 2 -96 47q-193 152 -270 559q-10 63 -12 134zM477 559q0 23 2 49l21 -2q-2 -23 -2 -45q6 -266 172 -498q-12 66 -99 250q-59 121 -61 254q-2 188 145 211l4 -20q-131 -20 -127 -189q2 -125 58 -247q104 -233 100 -283q43 -55 86 -111q51 -57 117 -82l-8 -18 q-70 27 -123 84q-45 59 -92 119h-2v2q-184 227 -191 526zM481 1532v20q211 -6 471 -114q225 -95 424 -238l-10 -16q-184 133 -422 231q-264 111 -463 117zM518 1335h17q47 2 112 -47q313 0 639 -287q2 0 6 3q59 0 142 -82l-15 -15q-68 68 -112 76q98 -90 161 -172l-14 -12 q-76 96 -172 180l-4 -2l-2 8q-322 276 -627 283l-2 -4l-6 4q-29 27 -109 20l-2 21q20 2 39 0q-27 10 -47 6zM518 1352l2 20q332 -55 586 -190q51 -27 158 -101q98 -67 157 -96l-8 -18q-47 20 -127 75q-53 49 -190 123q-250 133 -578 187zM537 965q61 2 155 -25t142 -59l4 2 l2 -4q70 -4 108 -74q20 -12 103 -107q70 -82 131 -225q10 -23 28 -70q6 -10 19 -32q41 -78 43 -142q0 -47 -21 -82q-10 -76 -98 -137q-10 -53 -84 -55q-98 -2 -238 221q14 -53 84 -131l-14 -14q-90 100 -92 157q0 10 2 21q-160 270 -162 369q-2 55 33 57q12 0 27 -6 q6 2 12 2q61 0 174 -189q70 -121 129 -256q43 -98 96 -96q-14 10 -26 31q-2 4 -64 117q-51 98 -156 288q-80 139 -174 138q-76 -2 -73 -76q0 -35 20 -80q102 -256 139 -328q121 -240 215 -260l-4 -20q-137 31 -284 393q-35 82 -101 246v2q-6 25 -6 47q-2 94 94 96 q104 2 193 -147q23 -41 156 -289q20 -39 63 -117q12 -18 23 -27q0 14 -9 35q0 2 -41 92q-92 203 -133 271q-94 156 -211 211q-12 -12 -45 -19q-25 -2 -49 -6q-70 -20 -67 -117q0 -35 12 -77q25 -23 108 -222q68 -162 111 -233q92 -152 184 -150q39 0 76 31h-12 q-84 -2 -144 88l17 10q53 -80 129 -77q20 0 41 6l6 10l6 -4q55 25 125 117q51 68 49 172q0 25 -2 49q-25 33 -61 123q-49 123 -51 127q-16 31 -74 110q-160 221 -309 279q-18 6 -68 16q-115 23 -148 21q-18 0 -38 -2zM541 1266h12q342 8 666 -260q162 -136 262 -281l-17 -12 q-152 225 -401 377q-268 162 -520 155zM555 1200l2 21q170 -4 324 -70q63 0 155 -49q201 -111 437 -418l-17 -12q-264 346 -479 436q256 -141 481 -483l-16 -11q-106 164 -252 304q-174 168 -324 217q-150 61 -311 65zM565 -330l4 21q37 -8 68 -8q27 0 59 10l4 -21 q-33 -8 -63 -10q-35 0 -72 8zM565 1567l2 20q174 -10 398 -106q190 -82 362 -203l-10 -16q-158 111 -359 198q-227 96 -393 107zM608 1608l4 18q369 -70 635 -248l-10 -16q-260 174 -629 246zM655 -369l127 11l2 -21l-127 -10zM670 586q0 -106 149 -353q158 -260 252 -258 q35 1 51 19q-14 -4 -28 -6q-109 -2 -205 200q-41 88 -154 269q-43 68 -43 108q0 20 6 45q-8 2 -14 2q-16 0 -14 -26zM696 893q178 -51 299 -182q137 -150 252 -518q4 16 4 32q-2 43 -21.5 86t-37.5 84q-6 18 -21 58q-55 137 -137 231q-29 37 -92 100l-2 -4q-92 37 -115 82 q-33 23 -108 49q-6 -12 -21 -18zM711 1628l4 21q160 -25 270 -101q92 -10 176 -80l-14 -16q-80 70 -170 78q-104 74 -266 98zM723 578l18 10l4 -8q109 -184 181 -308q27 -47 80 -139q51 -80 96 -80q47 2 96 70l16 -12q-53 -78 -108 -78q-61 -2 -117 90q-25 43 -76 131 q-72 123 -184 315zM745 -399h21q109 0 184 32l8 -18q-78 -35 -194 -35h-19v21zM791 -354q57 4 165 28l9 -18q-39 -16 -172 -31zM797 -303q250 10 456 147l13 -16q-205 -135 -469 -152v21zM834 211zM852 856q19 -22 68 -45q-29 37 -68 45zM862 922l8 -4zM870 918l4 -3h3z M969 -328q35 12 98 45l12 -18q-25 -16 -102 -45zM1090 -279l106 46l8 -21l-106 -43zM1161 -43q117 63 137 160l19 -4q-8 -39 -31 -76q18 14 43 74l21 -9q-29 -63 -56 -84l-12 15q-37 -55 -111 -94zM1208 -49q39 14 76 67l16 -10q-41 -61 -83 -78zM1409 422l18 6l17 -55 l-21 -4zM1444 541l20 6l17 -49l-21 -6z" />
<glyph unicode="~" horiz-adv-x="1116" d="M61 709q0 109 82 181.5t191 72.5q66 0 232.5 -84t262.5 -84q133 0 134 125q0 14 -2 32q79 -61 79 -157q0 -119 -84 -212.5t-200 -93.5q-100 0 -243.5 86.5t-221.5 86.5q-111 0 -111 -125q0 -18 4 -37q-123 88 -123 209zM154 731q16 37 71.5 74t93.5 37q57 0 206 -77 t245 -77q71 0 102 29q-10 -12 -36 -12q-84 0 -267.5 90t-240.5 90q-59 0 -112.5 -47t-61.5 -107z" />
<glyph unicode="&#xa1;" horiz-adv-x="790" d="M102 -10q33 -8 78 -8q143 0 221 104q94 -104 283 -104q25 0 51 2v137q-125 25 -135 160l-127 694h-96l-129 -658q-33 -190 -144 -182zM225 1294q0 -84 59.5 -144t143.5 -60q86 0 145.5 60t59.5 144t-59.5 143.5t-145.5 59.5q-84 0 -143.5 -59.5t-59.5 -143.5zM279 145 q47 35 69 197l68 463l-21 -502q-2 -47 -35 -96q-37 -55 -81 -62zM299 1307q0 68 70 108q-33 -31 -33 -80q0 -25 8 -45q34 -102 100 -131q-113 -6 -143 117q-2 16 -2 31z" />
<glyph unicode="&#xa2;" horiz-adv-x="1083" d="M47 688q0 207 128 361.5t327 177.5v147h127v-145q156 -18 270 -92q139 -89 139 -222q0 -70 -49 -113.5t-119 -43.5q-63 0 -117.5 44t-54.5 107t58 123q-39 41 -140 41q-119 0 -188 -135q-55 -109 -55 -238q0 -137 51 -247q68 -139 190 -140q84 0 158 37q82 41 111 113 l129 -60q-135 -223 -383 -245v-150h-125v150q-205 23 -331 170t-126 360zM123 690q2 -76 20 -141q45 -153 160 -225q-59 59 -96 172q-35 102 -35 196q-6 203 131 355q-117 -68 -160 -216q-8 -25 -20 -141z" />
<glyph unicode="&#xa3;" horiz-adv-x="1085" d="M57 590v125h125q-8 31 -67 114q-49 70 -49 146q0 193 145 297q129 94 328 94q162 0 303 -84q166 -98 166 -248q0 -229 -205 -229q-72 0 -125 46t-53 116q0 74 86 139q-57 113 -154 113q-168 0 -168 -205q0 -35 40 -123t36 -176h117v-125h-136q-41 -176 -151 -297 q80 49 176 49q59 0 171 -34t169 -34q113 0 137 121q101 -49 101 -155q0 -117 -64.5 -186.5t-179.5 -69.5q-63 0 -185 33.5t-188 33.5t-186.5 -34.5t-175.5 -34.5q-6 47 -7 75q0 141 64 295q66 162 70 238h-140zM164 248q168 207 168 375q0 84 -51.5 211t-53.5 190 q0 146 133 238q-84 -29 -137 -96.5t-53 -149.5q0 -70 59.5 -185.5t59.5 -207.5q0 -152 -125 -375z" />
<glyph unicode="&#xa4;" horiz-adv-x="1372" d="M-61 518l67 119h209q-2 47 0 106h-276l67 119h225q45 225 202 359.5t384 134.5q184 0 330 -101q164 -110 164 -286q0 -76 -52.5 -131.5t-128.5 -55.5q-72 0 -128 53.5t-56 127.5q0 76 68 151q-53 61 -170 62q-197 0 -264 -314h331l-67 -119h-283q-2 -66 2 -106h225 l-67 -119h-141q63 -313 262 -313q98 0 184 49t123 135l127 -63q-76 -137 -199 -217q-131 -86 -280 -86q-213 0 -371 145q-150 137 -195 350h-292zM305 686q0 -274 203 -459q-147 205 -148 486q0 213 150 422q-205 -178 -205 -449z" />
<glyph unicode="&#xa8;" horiz-adv-x="1214" d="M414 1772q0 63 45 107t108 44t107.5 -44t44.5 -107t-44 -108.5t-108 -45.5q-63 0 -108 45t-45 109zM471 1784q-10 -70 49 -103q-35 33 -16 93q27 78 76 98q-92 6 -109 -88zM874 1772q0 63 45.5 107t108.5 44t107.5 -44t44.5 -107t-44 -108.5t-108 -45.5q-63 0 -108.5 45 t-45.5 109zM932 1784q-10 -70 49 -103q-35 33 -16 93q26 78 75 98q-92 6 -108 -88z" />
<glyph unicode="&#xab;" horiz-adv-x="1376" d="M33 504l678 555l-283 -555l283 -555zM162 504l35 -39l372 405zM596 504l678 555l-283 -555l283 -555zM725 504l35 -39l372 405z" />
<glyph unicode="&#xad;" horiz-adv-x="628" d="M61 463v330l488 129v-328zM117 698l348 95v43l-348 -95v-43z" />
<glyph unicode="&#xb4;" horiz-adv-x="1038" d="M203 1583l532 383l111 -244zM367 1647l327 151l-26 41z" />
<glyph unicode="&#xb8;" horiz-adv-x="1306" d="M645 4q115 0 192.5 -58.5t77.5 -146.5q0 -86 -77.5 -144t-192.5 -58v133q115 0 115 69q0 72 -115 72v133z" />
<glyph unicode="&#xbb;" horiz-adv-x="1384" d="M103 -51l282 555l-282 555l678 -555zM244 870l270 -405l35 39zM676 -51l282 555l-282 555l678 -555zM817 870l270 -405l35 39z" />
<glyph unicode="&#xbf;" horiz-adv-x="1261" d="M102 414q0 154 148 268q68 53 242 135q127 72 126 199q0 14 -2 31q100 -84 101 -193q0 -145 -144 -250q-156 -123 -141 -254q0 -104 84 -172q76 -63 178 -63q123 0 185 94q-98 59 -99 176q-2 84 58.5 138.5t152.5 54.5q96 0 151.5 -67t55.5 -161q-4 -178 -186 -282 q-152 -86 -340 -86q-213 0 -357.5 81.5t-193.5 231.5q-18 61 -19 119zM283 393q-4 -199 182 -274q-131 88 -131 278q2 45 16 86q33 100 115 164q-76 -27 -125 -99.5t-57 -154.5zM424 1315q0 84 59.5 143.5t143.5 59.5t144 -59.5t60 -143.5t-60 -144.5t-144 -60.5 t-143.5 60.5t-59.5 144.5zM610 1180q113 -6 146 116q2 16 2 31q0 68 -70 109q31 -31 31 -80q0 -25 -6 -45q-35 -102 -103 -131z" />
<glyph unicode="&#xc0;" d="M6 10v135q150 6 205 136q111 256 223 514q184 432 184 481q0 63 -81 63q-25 0 -52 -4l2 164q41 10 99 10q188 0 280 -123q41 57 125 91q76 31 154 30q43 0 86 -8v-147q-51 -2 -88 -27q-45 -29 -45 -76q0 -31 20 -69l465 -899q80 -154 166 -144v-141q-16 -4 -45 -4 q-195 0 -285 112q-113 -106 -317 -106q-35 0 -68 4v135q63 0 115 19q72 25 72 73q0 29 -37 99q-27 45 -54 92h-634q-53 -127 -54 -160q0 -127 189 -123v-135q-29 -6 -70 -6q-141 0 -221 86q-121 -90 -246 -90q-47 0 -88 18zM510 1722l643 -139l-533 383zM592 639l416 -2 l-232 463zM661 1798l27 41l301 -192zM836 1212l483 -952q0 84 -33 148l-366 735q-20 37 -84 69z" />
<glyph unicode="&#xc1;" d="M6 10v135q150 6 205 136q111 256 223 514q184 432 184 481q0 63 -81 63q-25 0 -52 -4l2 164q41 10 99 10q188 0 280 -123q41 57 125 91q76 31 154 30q43 0 86 -8v-147q-51 -2 -88 -27q-45 -29 -45 -76q0 -31 20 -69l465 -899q80 -154 166 -144v-141q-16 -4 -45 -4 q-195 0 -285 112q-113 -106 -317 -106q-35 0 -68 4v135q63 0 115 19q72 25 72 73q0 29 -37 99q-27 45 -54 92h-634q-53 -127 -54 -160q0 -127 189 -123v-135q-29 -6 -70 -6q-141 0 -221 86q-121 -90 -246 -90q-47 0 -88 18zM592 639l416 -2l-232 463zM836 1212l483 -952 q0 84 -33 148l-366 735q-20 37 -84 69z" />
<glyph unicode="&#xc2;" d="M6 10v135q150 6 205 136q111 256 223 514q184 432 184 481q0 63 -81 63q-25 0 -52 -4l2 164q41 10 99 10q188 0 280 -123q41 57 125 91q76 31 154 30q43 0 86 -8v-147q-51 -2 -88 -27q-45 -29 -45 -76q0 -31 20 -69l465 -899q80 -154 166 -144v-141q-16 -4 -45 -4 q-195 0 -285 112q-113 -106 -317 -106q-35 0 -68 4v135q63 0 115 19q72 25 72 73q0 29 -37 99q-27 45 -54 92h-634q-53 -127 -54 -160q0 -127 189 -123v-135q-29 -6 -70 -6q-141 0 -221 86q-121 -90 -246 -90q-47 0 -88 18zM592 639l416 -2l-232 463zM836 1212l483 -952 q0 84 -33 148l-366 735q-20 37 -84 69z" />
<glyph unicode="&#xc3;" d="M6 10v135q150 6 205 136q111 256 223 514q184 432 184 481q0 63 -81 63q-25 0 -52 -4l2 164q41 10 99 10q188 0 280 -123q41 57 125 91q76 31 154 30q43 0 86 -8v-147q-51 -2 -88 -27q-45 -29 -45 -76q0 -31 20 -69l465 -899q80 -154 166 -144v-141q-16 -4 -45 -4 q-195 0 -285 112q-113 -106 -317 -106q-35 0 -68 4v135q63 0 115 19q72 25 72 73q0 29 -37 99q-27 45 -54 92h-634q-53 -127 -54 -160q0 -127 189 -123v-135q-29 -6 -70 -6q-141 0 -221 86q-121 -90 -246 -90q-47 0 -88 18zM473 1737q0 82 62.5 136t142.5 54q49 0 174 -62.5 t199 -62.5q115 0 98 117q60 -45 60 -119q0 -88 -62.5 -157.5t-150.5 -69.5q-76 0 -183.5 64.5t-165.5 64.5q-84 0 -84 -94q0 -14 3 -29q-92 68 -93 158zM543 1753q12 29 53 56.5t72 27.5q43 0 153.5 -57.5t184.5 -57.5q53 1 76 21q-6 -10 -27 -10q-63 0 -200.5 68.5 t-180.5 68.5q-45 0 -85 -36t-46 -81zM592 639l416 -2l-232 463zM836 1212l483 -952q0 84 -33 148l-366 735q-20 37 -84 69z" />
<glyph unicode="&#xc4;" d="M6 10v135q150 6 205 136q111 256 223 514q184 432 184 481q0 63 -81 63q-25 0 -52 -4l2 164q41 10 99 10q188 0 280 -123q41 57 125 91q76 31 154 30q43 0 86 -8v-147q-51 -2 -88 -27q-45 -29 -45 -76q0 -31 20 -69l465 -899q80 -154 166 -144v-141q-16 -4 -45 -4 q-195 0 -285 112q-113 -106 -317 -106q-35 0 -68 4v135q63 0 115 19q72 25 72 73q0 29 -37 99q-27 45 -54 92h-634q-53 -127 -54 -160q0 -127 189 -123v-135q-29 -6 -70 -6q-141 0 -221 86q-121 -90 -246 -90q-47 0 -88 18zM465 1772q0 63 45 107t108 44t107.5 -44 t44.5 -107t-44 -108.5t-108 -45.5q-63 0 -108 45t-45 109zM522 1784q-10 -70 49 -103q-35 33 -16 93q27 78 76 98q-92 6 -109 -88zM592 639l416 -2l-232 463zM836 1212l483 -952q0 84 -33 148l-366 735q-20 37 -84 69zM925 1772q0 63 45.5 107t108.5 44t107.5 -44t44.5 -107 t-44 -108.5t-108 -45.5q-63 0 -108.5 45t-45.5 109zM983 1784q-10 -70 49 -103q-35 33 -16 93q26 78 75 98q-92 6 -108 -88z" />
<glyph unicode="&#xc5;" d="M6 10v135q150 6 205 136q111 256 223 514q184 432 184 481q0 63 -81 63q-25 0 -52 -4l2 164q41 10 99 10q188 0 280 -123q41 57 125 91q76 31 154 30q43 0 86 -8v-147q-51 -2 -88 -27q-45 -29 -45 -76q0 -31 20 -69l465 -899q80 -154 166 -144v-141q-16 -4 -45 -4 q-195 0 -285 112q-113 -106 -317 -106q-35 0 -68 4v135q63 0 115 19q72 25 72 73q0 29 -37 99q-27 45 -54 92h-634q-53 -127 -54 -160q0 -127 189 -123v-135q-29 -6 -70 -6q-141 0 -221 86q-121 -90 -246 -90q-47 0 -88 18zM592 639l416 -2l-232 463zM621 1724 q0 96 66.5 163t162.5 67q94 0 161.5 -67t67.5 -163q0 -94 -67.5 -161.5t-161.5 -67.5q-96 0 -162.5 67.5t-66.5 161.5zM735 1724q0 -47 33 -80.5t82 -33.5q47 0 81 33.5t34 80.5q0 49 -34 82t-81 33q-49 0 -82 -32.5t-33 -82.5zM836 1212l483 -952q0 84 -33 148l-366 735 q-20 37 -84 69z" />
<glyph unicode="&#xc6;" horiz-adv-x="2330" d="M6 10v135q117 25 125 27q57 20 109 78l942 1063q-43 53 -117 43v149l41 2q250 6 295 -104q152 104 330 104q66 0 170 -31.5t147 -31.5q76 0 88 67l113 -55l2 -317l-117 -37q-20 100 -108.5 161.5t-192.5 61.5q-147 0 -203 -82q-39 -61 -39 -199v-83q2 -55 2 -87 q37 -16 80 -16q139 0 148 203l143 -6q2 -16 2 -43q0 -203 -90 -226q96 -72 106 -229h-163q-29 74 -50 96q-33 33 -104 33q-47 0 -70 -31q0 -225 15 -293q39 -186 188 -186q162 0 260 86q106 90 113 252l166 -20l-37 -496h-111l-55 94q-166 -96 -358 -96q-186 0 -318 119 q-131 -121 -274 -121q-35 0 -68 10v152q63 0 96 75q27 57 27 129v60h-606q-37 -39 -141 -168q-12 -16 -13 -31q0 -35 62 -61q51 -25 90 -23v-135q-29 -6 -68 -6q-141 0 -223 86q-119 -90 -246 -90q-47 0 -88 18zM834 639l403 -2v457zM1290 199q84 27 84 172v688 q0 57 -16 125q-20 78 -51 110q25 -43 24 -172v-716q0 -164 -41 -207z" />
<glyph unicode="&#xc7;" horiz-adv-x="1306" d="M61 721q0 328 148 549q170 254 481 254q172 0 350 -101l39 68l125 -8v-500l-121 -4q-84 371 -323 371q-178 0 -268 -213q-70 -160 -70 -365q0 -213 72 -375q94 -213 280 -213q135 0 238 105q94 96 121 233l147 -55q-25 -203 -195 -347.5t-374 -144.5q-303 0 -482 226 q-168 207 -168 520zM154 754q0 -193 63 -353q74 -184 219 -274q-109 109 -174 295q-59 172 -59 338q0 246 116 500q-166 -168 -165 -506zM645 4q115 0 192.5 -58.5t77.5 -146.5q0 -86 -77.5 -144t-192.5 -58v133q115 0 115 69q0 72 -115 72v133z" />
<glyph unicode="&#xc8;" horiz-adv-x="1411" d="M82 1356v149l41 2q250 6 295 -104q152 104 330 104q66 0 170 -31.5t147 -31.5q76 0 88 67l113 -55l2 -317l-117 -37q-20 100 -108.5 161.5t-192.5 61.5q-147 0 -203 -82q-39 -61 -39 -199v-83q2 -55 2 -87q37 -16 80 -16q139 0 148 203l143 -6q2 -16 2 -43 q0 -203 -90 -226q96 -72 106 -229h-163q-29 74 -50 96q-33 33 -104 33q-47 0 -70 -31q0 -225 15 -293q39 -186 188 -186q162 0 260 86q106 90 113 252l166 -20l-37 -496h-111l-55 94q-166 -96 -358 -96q-186 0 -318 119q-131 -121 -274 -121q-35 0 -68 10v152q63 0 96 75 q27 57 27 129l-2 750q0 102 -35 170q-45 90 -137 76zM307 199q84 27 84 172v688q0 57 -16 125q-20 78 -51 110q25 -43 24 -172v-716q0 -164 -41 -207zM408 1722l643 -139l-533 383zM559 1798l27 41l301 -192z" />
<glyph unicode="&#xc9;" horiz-adv-x="1411" d="M82 1356v149l41 2q250 6 295 -104q152 104 330 104q66 0 170 -31.5t147 -31.5q76 0 88 67l113 -55l2 -317l-117 -37q-20 100 -108.5 161.5t-192.5 61.5q-147 0 -203 -82q-39 -61 -39 -199v-83q2 -55 2 -87q37 -16 80 -16q139 0 148 203l143 -6q2 -16 2 -43 q0 -203 -90 -226q96 -72 106 -229h-163q-29 74 -50 96q-33 33 -104 33q-47 0 -70 -31q0 -225 15 -293q39 -186 188 -186q162 0 260 86q106 90 113 252l166 -20l-37 -496h-111l-55 94q-166 -96 -358 -96q-186 0 -318 119q-131 -121 -274 -121q-35 0 -68 10v152q63 0 96 75 q27 57 27 129l-2 750q0 102 -35 170q-45 90 -137 76zM307 199q84 27 84 172v688q0 57 -16 125q-20 78 -51 110q25 -43 24 -172v-716q0 -164 -41 -207zM408 1583l532 383l111 -244zM572 1647l327 151l-26 41z" />
<glyph unicode="&#xca;" horiz-adv-x="1411" d="M82 1356v149l41 2q250 6 295 -104q152 104 330 104q66 0 170 -31.5t147 -31.5q76 0 88 67l113 -55l2 -317l-117 -37q-20 100 -108.5 161.5t-192.5 61.5q-147 0 -203 -82q-39 -61 -39 -199v-83q2 -55 2 -87q37 -16 80 -16q139 0 148 203l143 -6q2 -16 2 -43 q0 -203 -90 -226q96 -72 106 -229h-163q-29 74 -50 96q-33 33 -104 33q-47 0 -70 -31q0 -225 15 -293q39 -186 188 -186q162 0 260 86q106 90 113 252l166 -20l-37 -496h-111l-55 94q-166 -96 -358 -96q-186 0 -318 119q-131 -121 -274 -121q-35 0 -68 10v152q63 0 96 75 q27 57 27 129l-2 750q0 102 -35 170q-45 90 -137 76zM283 1534l458 457l457 -457l-457 190zM307 199q84 27 84 172v688q0 57 -16 125q-20 78 -51 110q25 -43 24 -172v-716q0 -164 -41 -207zM440 1626l289 207l4 68z" />
<glyph unicode="&#xcb;" horiz-adv-x="1411" d="M82 1356v149l41 2q250 6 295 -104q152 104 330 104q66 0 170 -31.5t147 -31.5q76 0 88 67l113 -55l2 -317l-117 -37q-20 100 -108.5 161.5t-192.5 61.5q-147 0 -203 -82q-39 -61 -39 -199v-83q2 -55 2 -87q37 -16 80 -16q139 0 148 203l143 -6q2 -16 2 -43 q0 -203 -90 -226q96 -72 106 -229h-163q-29 74 -50 96q-33 33 -104 33q-47 0 -70 -31q0 -225 15 -293q39 -186 188 -186q162 0 260 86q106 90 113 252l166 -20l-37 -496h-111l-55 94q-166 -96 -358 -96q-186 0 -318 119q-131 -121 -274 -121q-35 0 -68 10v152q63 0 96 75 q27 57 27 129l-2 750q0 102 -35 170q-45 90 -137 76zM307 199q84 27 84 172v688q0 57 -16 125q-20 78 -51 110q25 -43 24 -172v-716q0 -164 -41 -207z" />
<glyph unicode="&#xcc;" horiz-adv-x="841" d="M101 1722l643 -139l-533 383zM104 1352v137q47 20 113 20q129 0 223 -98q78 102 236 102q45 0 94 -12l2 -151q-66 -2 -107.5 -44t-41.5 -108v-901q0 -143 137 -164v-131q-29 -6 -70 -6q-176 0 -270 117q-35 -55 -108.5 -87t-143.5 -30l-41 2v135q66 4 103.5 55.5 t37.5 118.5l-2 842q0 215 -162 203zM252 1798l27 41l301 -192zM317 219q43 14 66 74q18 47 18 98v688q0 57 -18 125q-18 78 -51 111q27 -43 26 -172v-717q0 -164 -41 -207z" />
<glyph unicode="&#xcd;" horiz-adv-x="841" d="M104 1352v137q47 20 113 20q129 0 223 -98q78 102 236 102q45 0 94 -12l2 -151q-66 -2 -107.5 -44t-41.5 -108v-901q0 -143 137 -164v-131q-29 -6 -70 -6q-176 0 -270 117q-35 -55 -108.5 -87t-143.5 -30l-41 2v135q66 4 103.5 55.5t37.5 118.5l-2 842q0 215 -162 203z M317 219q43 14 66 74q18 47 18 98v688q0 57 -18 125q-18 78 -51 111q27 -43 26 -172v-717q0 -164 -41 -207z" />
<glyph unicode="&#xce;" horiz-adv-x="841" d="M104 1352v137q47 20 113 20q129 0 223 -98q78 102 236 102q45 0 94 -12l2 -151q-66 -2 -107.5 -44t-41.5 -108v-901q0 -143 137 -164v-131q-29 -6 -70 -6q-176 0 -270 117q-35 -55 -108.5 -87t-143.5 -30l-41 2v135q66 4 103.5 55.5t37.5 118.5l-2 842q0 215 -162 203z M317 219q43 14 66 74q18 47 18 98v688q0 57 -18 125q-18 78 -51 111q27 -43 26 -172v-717q0 -164 -41 -207z" />
<glyph unicode="&#xcf;" horiz-adv-x="841" d="M104 1352v137q47 20 113 20q129 0 223 -98q78 102 236 102q45 0 94 -12l2 -151q-66 -2 -107.5 -44t-41.5 -108v-901q0 -143 137 -164v-131q-29 -6 -70 -6q-176 0 -270 117q-35 -55 -108.5 -87t-143.5 -30l-41 2v135q66 4 103.5 55.5t37.5 118.5l-2 842q0 215 -162 203z M317 219q43 14 66 74q18 47 18 98v688q0 57 -18 125q-18 78 -51 111q27 -43 26 -172v-717q0 -164 -41 -207z" />
<glyph unicode="&#xd1;" horiz-adv-x="1583" d="M92 1329v166h350l738 -831v483q0 84 -33 137q-43 61 -121 62v157q23 4 57 4q139 0 215 -90q55 92 203 92q20 0 45 -2v-166q-63 -2 -105 -43t-42 -104v-1184h-152l-690 795v-463q0 -197 166 -190v-148q-31 -12 -78 -12q-119 0 -205 86q-106 -84 -229 -84q-18 0 -35 2v151 q63 6 103 53.5t40 112.5v758q0 111 -55 182q-61 78 -172 76zM442 1737q0 82 62.5 136t142.5 54q49 0 174 -62.5t199 -62.5q115 0 98 117q60 -45 60 -119q0 -88 -62.5 -157.5t-150.5 -69.5q-76 0 -183.5 64.5t-165.5 64.5q-84 0 -84 -94q0 -14 3 -29q-92 68 -93 158z M504 1018l719 -828v66l-719 825v-63zM512 1753q12 29 53 56.5t72 27.5q43 0 153.5 -57.5t184.5 -57.5q53 1 76 21q-6 -10 -27 -10q-63 0 -200.5 68.5t-180.5 68.5q-45 0 -85 -36t-46 -81z" />
<glyph unicode="&#xd2;" horiz-adv-x="1351" d="M41 745q0 307 174 537q190 252 490 252q289 0 475 -252q168 -229 168 -528q0 -309 -170 -539q-188 -252 -488 -252q-289 0 -477 252q-172 231 -172 530zM137 741q0 -317 246 -600q-186 317 -186 635q0 279 145 531q-92 -106 -148.5 -264t-56.5 -302zM367 1722l643 -139 l-533 383zM449 721q0 -176 53 -350q72 -236 203 -236q225 1 225 572q0 199 -37 368q-59 264 -188 264q-152 0 -218 -245q-39 -154 -38 -373zM518 1798l27 41l301 -192zM905 1292l6 -8q121 -256 121 -569q0 -326 -119 -539q185 230 185 537q0 313 -193 579z" />
<glyph unicode="&#xd3;" horiz-adv-x="1351" d="M41 745q0 307 174 537q190 252 490 252q289 0 475 -252q168 -229 168 -528q0 -309 -170 -539q-188 -252 -488 -252q-289 0 -477 252q-172 231 -172 530zM137 741q0 -317 246 -600q-186 317 -186 635q0 279 145 531q-92 -106 -148.5 -264t-56.5 -302zM449 721 q0 -176 53 -350q72 -236 203 -236q225 1 225 572q0 199 -37 368q-59 264 -188 264q-152 0 -218 -245q-39 -154 -38 -373zM905 1292l6 -8q121 -256 121 -569q0 -326 -119 -539q185 230 185 537q0 313 -193 579z" />
<glyph unicode="&#xd4;" horiz-adv-x="1351" d="M41 745q0 307 174 537q190 252 490 252q289 0 475 -252q168 -229 168 -528q0 -309 -170 -539q-188 -252 -488 -252q-289 0 -477 252q-172 231 -172 530zM137 741q0 -317 246 -600q-186 317 -186 635q0 279 145 531q-92 -106 -148.5 -264t-56.5 -302zM449 721 q0 -176 53 -350q72 -236 203 -236q225 1 225 572q0 199 -37 368q-59 264 -188 264q-152 0 -218 -245q-39 -154 -38 -373zM905 1292l6 -8q121 -256 121 -569q0 -326 -119 -539q185 230 185 537q0 313 -193 579z" />
<glyph unicode="&#xd5;" horiz-adv-x="1351" d="M41 745q0 307 174 537q190 252 490 252q289 0 475 -252q168 -229 168 -528q0 -309 -170 -539q-188 -252 -488 -252q-289 0 -477 252q-172 231 -172 530zM137 741q0 -317 246 -600q-186 317 -186 635q0 279 145 531q-92 -106 -148.5 -264t-56.5 -302zM319 1737 q0 82 62.5 136t142.5 54q49 0 174 -62.5t199 -62.5q115 0 98 117q60 -45 60 -119q0 -88 -62.5 -157.5t-150.5 -69.5q-76 0 -183.5 64.5t-165.5 64.5q-84 0 -84 -94q0 -14 3 -29q-92 68 -93 158zM389 1753q12 29 53 56.5t72 27.5q43 0 153.5 -57.5t184.5 -57.5q53 1 76 21 q-6 -10 -27 -10q-63 0 -200.5 68.5t-180.5 68.5q-45 0 -85 -36t-46 -81zM449 721q0 -176 53 -350q72 -236 203 -236q225 1 225 572q0 199 -37 368q-59 264 -188 264q-152 0 -218 -245q-39 -154 -38 -373zM905 1292l6 -8q121 -256 121 -569q0 -326 -119 -539q185 230 185 537 q0 313 -193 579z" />
<glyph unicode="&#xd6;" horiz-adv-x="1351" d="M41 745q0 307 174 537q190 252 490 252q289 0 475 -252q168 -229 168 -528q0 -309 -170 -539q-188 -252 -488 -252q-289 0 -477 252q-172 231 -172 530zM137 741q0 -317 246 -600q-186 317 -186 635q0 279 145 531q-92 -106 -148.5 -264t-56.5 -302zM312 1772 q0 63 45 107t108 44t107.5 -44t44.5 -107t-44 -108.5t-108 -45.5q-63 0 -108 45t-45 109zM369 1784q-10 -70 49 -103q-35 33 -16 93q27 78 76 98q-92 6 -109 -88zM449 721q0 -176 53 -350q72 -236 203 -236q225 1 225 572q0 199 -37 368q-59 264 -188 264q-152 0 -218 -245 q-39 -154 -38 -373zM772 1772q0 63 45.5 107t108.5 44t107.5 -44t44.5 -107t-44 -108.5t-108 -45.5q-63 0 -108.5 45t-45.5 109zM830 1784q-10 -70 49 -103q-35 33 -16 93q26 78 75 98q-92 6 -108 -88zM905 1292l6 -8q121 -256 121 -569q0 -326 -119 -539q185 230 185 537 q0 313 -193 579z" />
<glyph unicode="&#xd9;" horiz-adv-x="1443" d="M63 1356v143q39 10 97 10q158 0 237 -102q68 102 230 102q37 0 75 -6v-147q-66 -2 -105.5 -49t-39.5 -115v-727q0 -127 66.5 -202t197.5 -75q117 0 180.5 77t63.5 196v659q0 98 -41 160q-49 72 -141 74l-2 151q27 4 63 4q139 0 211 -82q55 80 162 80q45 0 92 -20l2 -146 h-12q-63 0 -98 -42t-35 -107v-774q0 -190 -162 -320q-150 -123 -344 -123q-229 0 -385 157t-156 386v656q0 80 -37 131q-43 63 -119 51zM297 1303q8 -41 8 -156v-619q0 -147 88 -290q-39 121 -39 280l2 543q0 143 -59 242zM469 1722l643 -139l-533 383zM620 1798l27 41 l301 -192z" />
<glyph unicode="&#xda;" horiz-adv-x="1443" d="M63 1356v143q39 10 97 10q158 0 237 -102q68 102 230 102q37 0 75 -6v-147q-66 -2 -105.5 -49t-39.5 -115v-727q0 -127 66.5 -202t197.5 -75q117 0 180.5 77t63.5 196v659q0 98 -41 160q-49 72 -141 74l-2 151q27 4 63 4q139 0 211 -82q55 80 162 80q45 0 92 -20l2 -146 h-12q-63 0 -98 -42t-35 -107v-774q0 -190 -162 -320q-150 -123 -344 -123q-229 0 -385 157t-156 386v656q0 80 -37 131q-43 63 -119 51zM297 1303q8 -41 8 -156v-619q0 -147 88 -290q-39 121 -39 280l2 543q0 143 -59 242z" />
<glyph unicode="&#xdb;" horiz-adv-x="1443" d="M63 1356v143q39 10 97 10q158 0 237 -102q68 102 230 102q37 0 75 -6v-147q-66 -2 -105.5 -49t-39.5 -115v-727q0 -127 66.5 -202t197.5 -75q117 0 180.5 77t63.5 196v659q0 98 -41 160q-49 72 -141 74l-2 151q27 4 63 4q139 0 211 -82q55 80 162 80q45 0 92 -20l2 -146 h-12q-63 0 -98 -42t-35 -107v-774q0 -190 -162 -320q-150 -123 -344 -123q-229 0 -385 157t-156 386v656q0 80 -37 131q-43 63 -119 51zM297 1303q8 -41 8 -156v-619q0 -147 88 -290q-39 121 -39 280l2 543q0 143 -59 242z" />
<glyph unicode="&#xdc;" horiz-adv-x="1443" d="M63 1356v143q39 10 97 10q158 0 237 -102q68 102 230 102q37 0 75 -6v-147q-66 -2 -105.5 -49t-39.5 -115v-727q0 -127 66.5 -202t197.5 -75q117 0 180.5 77t63.5 196v659q0 98 -41 160q-49 72 -141 74l-2 151q27 4 63 4q139 0 211 -82q55 80 162 80q45 0 92 -20l2 -146 h-12q-63 0 -98 -42t-35 -107v-774q0 -190 -162 -320q-150 -123 -344 -123q-229 0 -385 157t-156 386v656q0 80 -37 131q-43 63 -119 51zM297 1303q8 -41 8 -156v-619q0 -147 88 -290q-39 121 -39 280l2 543q0 143 -59 242zM404 1772q0 63 45 107t108 44t107.5 -44t44.5 -107 t-44 -108.5t-108 -45.5q-63 0 -108 45t-45 109zM461 1784q-10 -70 49 -103q-35 33 -16 93q27 78 76 98q-92 6 -109 -88zM864 1772q0 63 45.5 107t108.5 44t107.5 -44t44.5 -107t-44 -108.5t-108 -45.5q-63 0 -108.5 45t-45.5 109zM922 1784q-10 -70 49 -103q-35 33 -16 93 q26 78 75 98q-92 6 -108 -88z" />
<glyph unicode="&#xe0;" d="M6 10v135q150 6 205 136q111 256 223 514q184 432 184 481q0 63 -81 63q-25 0 -52 -4l2 164q41 10 99 10q188 0 280 -123q41 57 125 91q76 31 154 30q43 0 86 -8v-147q-51 -2 -88 -27q-45 -29 -45 -76q0 -31 20 -69l465 -899q80 -154 166 -144v-141q-16 -4 -45 -4 q-195 0 -285 112q-113 -106 -317 -106q-35 0 -68 4v135q63 0 115 19q72 25 72 73q0 29 -37 99q-27 45 -54 92h-634q-53 -127 -54 -160q0 -127 189 -123v-135q-29 -6 -70 -6q-141 0 -221 86q-121 -90 -246 -90q-47 0 -88 18zM510 1722l643 -139l-533 383zM592 639l416 -2 l-232 463zM661 1798l27 41l301 -192zM836 1212l483 -952q0 84 -33 148l-366 735q-20 37 -84 69z" />
<glyph unicode="&#xe1;" d="M6 10v135q150 6 205 136q111 256 223 514q184 432 184 481q0 63 -81 63q-25 0 -52 -4l2 164q41 10 99 10q188 0 280 -123q41 57 125 91q76 31 154 30q43 0 86 -8v-147q-51 -2 -88 -27q-45 -29 -45 -76q0 -31 20 -69l465 -899q80 -154 166 -144v-141q-16 -4 -45 -4 q-195 0 -285 112q-113 -106 -317 -106q-35 0 -68 4v135q63 0 115 19q72 25 72 73q0 29 -37 99q-27 45 -54 92h-634q-53 -127 -54 -160q0 -127 189 -123v-135q-29 -6 -70 -6q-141 0 -221 86q-121 -90 -246 -90q-47 0 -88 18zM592 639l416 -2l-232 463zM836 1212l483 -952 q0 84 -33 148l-366 735q-20 37 -84 69z" />
<glyph unicode="&#xe2;" d="M6 10v135q150 6 205 136q111 256 223 514q184 432 184 481q0 63 -81 63q-25 0 -52 -4l2 164q41 10 99 10q188 0 280 -123q41 57 125 91q76 31 154 30q43 0 86 -8v-147q-51 -2 -88 -27q-45 -29 -45 -76q0 -31 20 -69l465 -899q80 -154 166 -144v-141q-16 -4 -45 -4 q-195 0 -285 112q-113 -106 -317 -106q-35 0 -68 4v135q63 0 115 19q72 25 72 73q0 29 -37 99q-27 45 -54 92h-634q-53 -127 -54 -160q0 -127 189 -123v-135q-29 -6 -70 -6q-141 0 -221 86q-121 -90 -246 -90q-47 0 -88 18zM592 639l416 -2l-232 463zM836 1212l483 -952 q0 84 -33 148l-366 735q-20 37 -84 69z" />
<glyph unicode="&#xe3;" d="M6 10v135q150 6 205 136q111 256 223 514q184 432 184 481q0 63 -81 63q-25 0 -52 -4l2 164q41 10 99 10q188 0 280 -123q41 57 125 91q76 31 154 30q43 0 86 -8v-147q-51 -2 -88 -27q-45 -29 -45 -76q0 -31 20 -69l465 -899q80 -154 166 -144v-141q-16 -4 -45 -4 q-195 0 -285 112q-113 -106 -317 -106q-35 0 -68 4v135q63 0 115 19q72 25 72 73q0 29 -37 99q-27 45 -54 92h-634q-53 -127 -54 -160q0 -127 189 -123v-135q-29 -6 -70 -6q-141 0 -221 86q-121 -90 -246 -90q-47 0 -88 18zM473 1737q0 82 62.5 136t142.5 54q49 0 174 -62.5 t199 -62.5q115 0 98 117q60 -45 60 -119q0 -88 -62.5 -157.5t-150.5 -69.5q-76 0 -183.5 64.5t-165.5 64.5q-84 0 -84 -94q0 -14 3 -29q-92 68 -93 158zM543 1753q12 29 53 56.5t72 27.5q43 0 153.5 -57.5t184.5 -57.5q53 1 76 21q-6 -10 -27 -10q-63 0 -200.5 68.5 t-180.5 68.5q-45 0 -85 -36t-46 -81zM592 639l416 -2l-232 463zM836 1212l483 -952q0 84 -33 148l-366 735q-20 37 -84 69z" />
<glyph unicode="&#xe4;" d="M6 10v135q150 6 205 136q111 256 223 514q184 432 184 481q0 63 -81 63q-25 0 -52 -4l2 164q41 10 99 10q188 0 280 -123q41 57 125 91q76 31 154 30q43 0 86 -8v-147q-51 -2 -88 -27q-45 -29 -45 -76q0 -31 20 -69l465 -899q80 -154 166 -144v-141q-16 -4 -45 -4 q-195 0 -285 112q-113 -106 -317 -106q-35 0 -68 4v135q63 0 115 19q72 25 72 73q0 29 -37 99q-27 45 -54 92h-634q-53 -127 -54 -160q0 -127 189 -123v-135q-29 -6 -70 -6q-141 0 -221 86q-121 -90 -246 -90q-47 0 -88 18zM465 1772q0 63 45 107t108 44t107.5 -44 t44.5 -107t-44 -108.5t-108 -45.5q-63 0 -108 45t-45 109zM522 1784q-10 -70 49 -103q-35 33 -16 93q27 78 76 98q-92 6 -109 -88zM592 639l416 -2l-232 463zM836 1212l483 -952q0 84 -33 148l-366 735q-20 37 -84 69zM925 1772q0 63 45.5 107t108.5 44t107.5 -44t44.5 -107 t-44 -108.5t-108 -45.5q-63 0 -108.5 45t-45.5 109zM983 1784q-10 -70 49 -103q-35 33 -16 93q26 78 75 98q-92 6 -108 -88z" />
<glyph unicode="&#xe5;" d="M6 10v135q150 6 205 136q111 256 223 514q184 432 184 481q0 63 -81 63q-25 0 -52 -4l2 164q41 10 99 10q188 0 280 -123q41 57 125 91q76 31 154 30q43 0 86 -8v-147q-51 -2 -88 -27q-45 -29 -45 -76q0 -31 20 -69l465 -899q80 -154 166 -144v-141q-16 -4 -45 -4 q-195 0 -285 112q-113 -106 -317 -106q-35 0 -68 4v135q63 0 115 19q72 25 72 73q0 29 -37 99q-27 45 -54 92h-634q-53 -127 -54 -160q0 -127 189 -123v-135q-29 -6 -70 -6q-141 0 -221 86q-121 -90 -246 -90q-47 0 -88 18zM592 639l416 -2l-232 463zM621 1724 q0 96 66.5 163t162.5 67q94 0 161.5 -67t67.5 -163q0 -94 -67.5 -161.5t-161.5 -67.5q-96 0 -162.5 67.5t-66.5 161.5zM735 1724q0 -47 33 -80.5t82 -33.5q47 0 81 33.5t34 80.5q0 49 -34 82t-81 33q-49 0 -82 -32.5t-33 -82.5zM836 1212l483 -952q0 84 -33 148l-366 735 q-20 37 -84 69z" />
<glyph unicode="&#xe7;" horiz-adv-x="1306" d="M61 721q0 328 148 549q170 254 481 254q172 0 350 -101l39 68l125 -8v-500l-121 -4q-84 371 -323 371q-178 0 -268 -213q-70 -160 -70 -365q0 -213 72 -375q94 -213 280 -213q135 0 238 105q94 96 121 233l147 -55q-25 -203 -195 -347.5t-374 -144.5q-303 0 -482 226 q-168 207 -168 520zM154 754q0 -193 63 -353q74 -184 219 -274q-109 109 -174 295q-59 172 -59 338q0 246 116 500q-166 -168 -165 -506zM645 4q115 0 192.5 -58.5t77.5 -146.5q0 -86 -77.5 -144t-192.5 -58v133q115 0 115 69q0 72 -115 72v133z" />
<glyph unicode="&#xe8;" horiz-adv-x="1411" d="M82 1356v149l41 2q250 6 295 -104q152 104 330 104q66 0 170 -31.5t147 -31.5q76 0 88 67l113 -55l2 -317l-117 -37q-20 100 -108.5 161.5t-192.5 61.5q-147 0 -203 -82q-39 -61 -39 -199v-83q2 -55 2 -87q37 -16 80 -16q139 0 148 203l143 -6q2 -16 2 -43 q0 -203 -90 -226q96 -72 106 -229h-163q-29 74 -50 96q-33 33 -104 33q-47 0 -70 -31q0 -225 15 -293q39 -186 188 -186q162 0 260 86q106 90 113 252l166 -20l-37 -496h-111l-55 94q-166 -96 -358 -96q-186 0 -318 119q-131 -121 -274 -121q-35 0 -68 10v152q63 0 96 75 q27 57 27 129l-2 750q0 102 -35 170q-45 90 -137 76zM307 199q84 27 84 172v688q0 57 -16 125q-20 78 -51 110q25 -43 24 -172v-716q0 -164 -41 -207zM408 1722l643 -139l-533 383zM559 1798l27 41l301 -192z" />
<glyph unicode="&#xe9;" horiz-adv-x="1411" d="M82 1356v149l41 2q250 6 295 -104q152 104 330 104q66 0 170 -31.5t147 -31.5q76 0 88 67l113 -55l2 -317l-117 -37q-20 100 -108.5 161.5t-192.5 61.5q-147 0 -203 -82q-39 -61 -39 -199v-83q2 -55 2 -87q37 -16 80 -16q139 0 148 203l143 -6q2 -16 2 -43 q0 -203 -90 -226q96 -72 106 -229h-163q-29 74 -50 96q-33 33 -104 33q-47 0 -70 -31q0 -225 15 -293q39 -186 188 -186q162 0 260 86q106 90 113 252l166 -20l-37 -496h-111l-55 94q-166 -96 -358 -96q-186 0 -318 119q-131 -121 -274 -121q-35 0 -68 10v152q63 0 96 75 q27 57 27 129l-2 750q0 102 -35 170q-45 90 -137 76zM307 199q84 27 84 172v688q0 57 -16 125q-20 78 -51 110q25 -43 24 -172v-716q0 -164 -41 -207zM408 1583l532 383l111 -244zM572 1647l327 151l-26 41z" />
<glyph unicode="&#xea;" horiz-adv-x="1411" d="M82 1356v149l41 2q250 6 295 -104q152 104 330 104q66 0 170 -31.5t147 -31.5q76 0 88 67l113 -55l2 -317l-117 -37q-20 100 -108.5 161.5t-192.5 61.5q-147 0 -203 -82q-39 -61 -39 -199v-83q2 -55 2 -87q37 -16 80 -16q139 0 148 203l143 -6q2 -16 2 -43 q0 -203 -90 -226q96 -72 106 -229h-163q-29 74 -50 96q-33 33 -104 33q-47 0 -70 -31q0 -225 15 -293q39 -186 188 -186q162 0 260 86q106 90 113 252l166 -20l-37 -496h-111l-55 94q-166 -96 -358 -96q-186 0 -318 119q-131 -121 -274 -121q-35 0 -68 10v152q63 0 96 75 q27 57 27 129l-2 750q0 102 -35 170q-45 90 -137 76zM283 1534l458 457l457 -457l-457 190zM307 199q84 27 84 172v688q0 57 -16 125q-20 78 -51 110q25 -43 24 -172v-716q0 -164 -41 -207zM440 1626l289 207l4 68z" />
<glyph unicode="&#xeb;" horiz-adv-x="1411" d="M82 1356v149l41 2q250 6 295 -104q152 104 330 104q66 0 170 -31.5t147 -31.5q76 0 88 67l113 -55l2 -317l-117 -37q-20 100 -108.5 161.5t-192.5 61.5q-147 0 -203 -82q-39 -61 -39 -199v-83q2 -55 2 -87q37 -16 80 -16q139 0 148 203l143 -6q2 -16 2 -43 q0 -203 -90 -226q96 -72 106 -229h-163q-29 74 -50 96q-33 33 -104 33q-47 0 -70 -31q0 -225 15 -293q39 -186 188 -186q162 0 260 86q106 90 113 252l166 -20l-37 -496h-111l-55 94q-166 -96 -358 -96q-186 0 -318 119q-131 -121 -274 -121q-35 0 -68 10v152q63 0 96 75 q27 57 27 129l-2 750q0 102 -35 170q-45 90 -137 76zM307 199q84 27 84 172v688q0 57 -16 125q-20 78 -51 110q25 -43 24 -172v-716q0 -164 -41 -207z" />
<glyph unicode="&#xec;" horiz-adv-x="841" d="M101 1722l643 -139l-533 383zM104 1352v137q47 20 113 20q129 0 223 -98q78 102 236 102q45 0 94 -12l2 -151q-66 -2 -107.5 -44t-41.5 -108v-901q0 -143 137 -164v-131q-29 -6 -70 -6q-176 0 -270 117q-35 -55 -108.5 -87t-143.5 -30l-41 2v135q66 4 103.5 55.5 t37.5 118.5l-2 842q0 215 -162 203zM252 1798l27 41l301 -192zM317 219q43 14 66 74q18 47 18 98v688q0 57 -18 125q-18 78 -51 111q27 -43 26 -172v-717q0 -164 -41 -207z" />
<glyph unicode="&#xed;" horiz-adv-x="841" d="M104 1352v137q47 20 113 20q129 0 223 -98q78 102 236 102q45 0 94 -12l2 -151q-66 -2 -107.5 -44t-41.5 -108v-901q0 -143 137 -164v-131q-29 -6 -70 -6q-176 0 -270 117q-35 -55 -108.5 -87t-143.5 -30l-41 2v135q66 4 103.5 55.5t37.5 118.5l-2 842q0 215 -162 203z M317 219q43 14 66 74q18 47 18 98v688q0 57 -18 125q-18 78 -51 111q27 -43 26 -172v-717q0 -164 -41 -207z" />
<glyph unicode="&#xee;" horiz-adv-x="841" d="M104 1352v137q47 20 113 20q129 0 223 -98q78 102 236 102q45 0 94 -12l2 -151q-66 -2 -107.5 -44t-41.5 -108v-901q0 -143 137 -164v-131q-29 -6 -70 -6q-176 0 -270 117q-35 -55 -108.5 -87t-143.5 -30l-41 2v135q66 4 103.5 55.5t37.5 118.5l-2 842q0 215 -162 203z M317 219q43 14 66 74q18 47 18 98v688q0 57 -18 125q-18 78 -51 111q27 -43 26 -172v-717q0 -164 -41 -207z" />
<glyph unicode="&#xef;" horiz-adv-x="841" d="M104 1352v137q47 20 113 20q129 0 223 -98q78 102 236 102q45 0 94 -12l2 -151q-66 -2 -107.5 -44t-41.5 -108v-901q0 -143 137 -164v-131q-29 -6 -70 -6q-176 0 -270 117q-35 -55 -108.5 -87t-143.5 -30l-41 2v135q66 4 103.5 55.5t37.5 118.5l-2 842q0 215 -162 203z M317 219q43 14 66 74q18 47 18 98v688q0 57 -18 125q-18 78 -51 111q27 -43 26 -172v-717q0 -164 -41 -207z" />
<glyph unicode="&#xf1;" horiz-adv-x="1583" d="M92 1329v166h350l738 -831v483q0 84 -33 137q-43 61 -121 62v157q23 4 57 4q139 0 215 -90q55 92 203 92q20 0 45 -2v-166q-63 -2 -105 -43t-42 -104v-1184h-152l-690 795v-463q0 -197 166 -190v-148q-31 -12 -78 -12q-119 0 -205 86q-106 -84 -229 -84q-18 0 -35 2v151 q63 6 103 53.5t40 112.5v758q0 111 -55 182q-61 78 -172 76zM442 1737q0 82 62.5 136t142.5 54q49 0 174 -62.5t199 -62.5q115 0 98 117q60 -45 60 -119q0 -88 -62.5 -157.5t-150.5 -69.5q-76 0 -183.5 64.5t-165.5 64.5q-84 0 -84 -94q0 -14 3 -29q-92 68 -93 158z M504 1018l719 -828v66l-719 825v-63zM512 1753q12 29 53 56.5t72 27.5q43 0 153.5 -57.5t184.5 -57.5q53 1 76 21q-6 -10 -27 -10q-63 0 -200.5 68.5t-180.5 68.5q-45 0 -85 -36t-46 -81z" />
<glyph unicode="&#xf2;" horiz-adv-x="1351" d="M41 745q0 307 174 537q190 252 490 252q289 0 475 -252q168 -229 168 -528q0 -309 -170 -539q-188 -252 -488 -252q-289 0 -477 252q-172 231 -172 530zM137 741q0 -317 246 -600q-186 317 -186 635q0 279 145 531q-92 -106 -148.5 -264t-56.5 -302zM367 1722l643 -139 l-533 383zM449 721q0 -176 53 -350q72 -236 203 -236q225 1 225 572q0 199 -37 368q-59 264 -188 264q-152 0 -218 -245q-39 -154 -38 -373zM518 1798l27 41l301 -192zM905 1292l6 -8q121 -256 121 -569q0 -326 -119 -539q185 230 185 537q0 313 -193 579z" />
<glyph unicode="&#xf3;" horiz-adv-x="1351" d="M41 745q0 307 174 537q190 252 490 252q289 0 475 -252q168 -229 168 -528q0 -309 -170 -539q-188 -252 -488 -252q-289 0 -477 252q-172 231 -172 530zM137 741q0 -317 246 -600q-186 317 -186 635q0 279 145 531q-92 -106 -148.5 -264t-56.5 -302zM449 721 q0 -176 53 -350q72 -236 203 -236q225 1 225 572q0 199 -37 368q-59 264 -188 264q-152 0 -218 -245q-39 -154 -38 -373zM905 1292l6 -8q121 -256 121 -569q0 -326 -119 -539q185 230 185 537q0 313 -193 579z" />
<glyph unicode="&#xf4;" horiz-adv-x="1351" d="M41 745q0 307 174 537q190 252 490 252q289 0 475 -252q168 -229 168 -528q0 -309 -170 -539q-188 -252 -488 -252q-289 0 -477 252q-172 231 -172 530zM137 741q0 -317 246 -600q-186 317 -186 635q0 279 145 531q-92 -106 -148.5 -264t-56.5 -302zM449 721 q0 -176 53 -350q72 -236 203 -236q225 1 225 572q0 199 -37 368q-59 264 -188 264q-152 0 -218 -245q-39 -154 -38 -373zM905 1292l6 -8q121 -256 121 -569q0 -326 -119 -539q185 230 185 537q0 313 -193 579z" />
<glyph unicode="&#xf5;" horiz-adv-x="1351" d="M41 745q0 307 174 537q190 252 490 252q289 0 475 -252q168 -229 168 -528q0 -309 -170 -539q-188 -252 -488 -252q-289 0 -477 252q-172 231 -172 530zM137 741q0 -317 246 -600q-186 317 -186 635q0 279 145 531q-92 -106 -148.5 -264t-56.5 -302zM319 1737 q0 82 62.5 136t142.5 54q49 0 174 -62.5t199 -62.5q115 0 98 117q60 -45 60 -119q0 -88 -62.5 -157.5t-150.5 -69.5q-76 0 -183.5 64.5t-165.5 64.5q-84 0 -84 -94q0 -14 3 -29q-92 68 -93 158zM389 1753q12 29 53 56.5t72 27.5q43 0 153.5 -57.5t184.5 -57.5q53 1 76 21 q-6 -10 -27 -10q-63 0 -200.5 68.5t-180.5 68.5q-45 0 -85 -36t-46 -81zM449 721q0 -176 53 -350q72 -236 203 -236q225 1 225 572q0 199 -37 368q-59 264 -188 264q-152 0 -218 -245q-39 -154 -38 -373zM905 1292l6 -8q121 -256 121 -569q0 -326 -119 -539q185 230 185 537 q0 313 -193 579z" />
<glyph unicode="&#xf6;" horiz-adv-x="1351" d="M41 745q0 307 174 537q190 252 490 252q289 0 475 -252q168 -229 168 -528q0 -309 -170 -539q-188 -252 -488 -252q-289 0 -477 252q-172 231 -172 530zM137 741q0 -317 246 -600q-186 317 -186 635q0 279 145 531q-92 -106 -148.5 -264t-56.5 -302zM312 1772 q0 63 45 107t108 44t107.5 -44t44.5 -107t-44 -108.5t-108 -45.5q-63 0 -108 45t-45 109zM369 1784q-10 -70 49 -103q-35 33 -16 93q27 78 76 98q-92 6 -109 -88zM449 721q0 -176 53 -350q72 -236 203 -236q225 1 225 572q0 199 -37 368q-59 264 -188 264q-152 0 -218 -245 q-39 -154 -38 -373zM772 1772q0 63 45.5 107t108.5 44t107.5 -44t44.5 -107t-44 -108.5t-108 -45.5q-63 0 -108.5 45t-45.5 109zM830 1784q-10 -70 49 -103q-35 33 -16 93q26 78 75 98q-92 6 -108 -88zM905 1292l6 -8q121 -256 121 -569q0 -326 -119 -539q185 230 185 537 q0 313 -193 579z" />
<glyph unicode="&#xf9;" horiz-adv-x="1443" d="M63 1356v143q39 10 97 10q158 0 237 -102q68 102 230 102q37 0 75 -6v-147q-66 -2 -105.5 -49t-39.5 -115v-727q0 -127 66.5 -202t197.5 -75q117 0 180.5 77t63.5 196v659q0 98 -41 160q-49 72 -141 74l-2 151q27 4 63 4q139 0 211 -82q55 80 162 80q45 0 92 -20l2 -146 h-12q-63 0 -98 -42t-35 -107v-774q0 -190 -162 -320q-150 -123 -344 -123q-229 0 -385 157t-156 386v656q0 80 -37 131q-43 63 -119 51zM297 1303q8 -41 8 -156v-619q0 -147 88 -290q-39 121 -39 280l2 543q0 143 -59 242zM469 1722l643 -139l-533 383zM620 1798l27 41 l301 -192z" />
<glyph unicode="&#xfa;" horiz-adv-x="1443" d="M63 1356v143q39 10 97 10q158 0 237 -102q68 102 230 102q37 0 75 -6v-147q-66 -2 -105.5 -49t-39.5 -115v-727q0 -127 66.5 -202t197.5 -75q117 0 180.5 77t63.5 196v659q0 98 -41 160q-49 72 -141 74l-2 151q27 4 63 4q139 0 211 -82q55 80 162 80q45 0 92 -20l2 -146 h-12q-63 0 -98 -42t-35 -107v-774q0 -190 -162 -320q-150 -123 -344 -123q-229 0 -385 157t-156 386v656q0 80 -37 131q-43 63 -119 51zM297 1303q8 -41 8 -156v-619q0 -147 88 -290q-39 121 -39 280l2 543q0 143 -59 242z" />
<glyph unicode="&#xfb;" horiz-adv-x="1443" d="M63 1356v143q39 10 97 10q158 0 237 -102q68 102 230 102q37 0 75 -6v-147q-66 -2 -105.5 -49t-39.5 -115v-727q0 -127 66.5 -202t197.5 -75q117 0 180.5 77t63.5 196v659q0 98 -41 160q-49 72 -141 74l-2 151q27 4 63 4q139 0 211 -82q55 80 162 80q45 0 92 -20l2 -146 h-12q-63 0 -98 -42t-35 -107v-774q0 -190 -162 -320q-150 -123 -344 -123q-229 0 -385 157t-156 386v656q0 80 -37 131q-43 63 -119 51zM297 1303q8 -41 8 -156v-619q0 -147 88 -290q-39 121 -39 280l2 543q0 143 -59 242z" />
<glyph unicode="&#xfc;" horiz-adv-x="1443" d="M63 1356v143q39 10 97 10q158 0 237 -102q68 102 230 102q37 0 75 -6v-147q-66 -2 -105.5 -49t-39.5 -115v-727q0 -127 66.5 -202t197.5 -75q117 0 180.5 77t63.5 196v659q0 98 -41 160q-49 72 -141 74l-2 151q27 4 63 4q139 0 211 -82q55 80 162 80q45 0 92 -20l2 -146 h-12q-63 0 -98 -42t-35 -107v-774q0 -190 -162 -320q-150 -123 -344 -123q-229 0 -385 157t-156 386v656q0 80 -37 131q-43 63 -119 51zM297 1303q8 -41 8 -156v-619q0 -147 88 -290q-39 121 -39 280l2 543q0 143 -59 242zM404 1772q0 63 45 107t108 44t107.5 -44t44.5 -107 t-44 -108.5t-108 -45.5q-63 0 -108 45t-45 109zM461 1784q-10 -70 49 -103q-35 33 -16 93q27 78 76 98q-92 6 -109 -88zM864 1772q0 63 45.5 107t108.5 44t107.5 -44t44.5 -107t-44 -108.5t-108 -45.5q-63 0 -108.5 45t-45.5 109zM922 1784q-10 -70 49 -103q-35 33 -16 93 q26 78 75 98q-92 6 -108 -88z" />
<glyph unicode="&#x152;" horiz-adv-x="2058" d="M41 745q0 307 174 537q190 252 490 252q199 0 317 -131q209 104 381 104q66 0 170 -31.5t147 -31.5q76 0 88 67l113 -55l2 -317l-117 -37q-20 100 -108 161.5t-193 61.5q-147 0 -202 -82q-39 -61 -39 -199v-83q2 -55 2 -87q37 -16 80 -16q139 0 147 203l143 -6 q2 -16 2 -43q0 -203 -90 -226q96 -72 107 -229h-164q-29 74 -49 96q-33 33 -105 33q-47 0 -69 -31q0 -225 14 -293q39 -186 188 -186q162 0 261 86q106 90 112 252l166 -20l-37 -496h-110l-56 94q-166 -96 -358 -96q-92 0 -209 37q-127 39 -192 94q-125 -164 -357 -164 q-289 0 -477 252q-172 229 -172 530zM137 741q0 -317 246 -600q-186 317 -186 615q0 131 39.5 284.5t105.5 266.5q-92 -106 -148.5 -264t-56.5 -302zM449 721q0 -176 53 -350q72 -236 203 -236q225 1 225 572q0 199 -37 368q-59 264 -188 264q-152 0 -218 -245 q-39 -154 -38 -373zM973 199q84 27 84 172v688q0 57 -17 125q-20 78 -51 110q27 -45 25 -172v-716q0 -164 -41 -207z" />
<glyph unicode="&#x178;" horiz-adv-x="1513" d="M10 1341v158q59 14 133 14q178 0 238 -102q66 98 231 98q43 0 90 -8l-2 -153q-33 8 -57 8q-59 0 -59 -43q0 -31 104 -203q68 -102 133 -207q63 86 129 174q98 143 99 203q0 84 -142 70l-2 147q59 10 129 10q172 0 211 -86q109 90 244 86l27 -2l-3 -164q-72 -2 -153 -65 q-68 -53 -115 -123l-321 -489l2 -375q0 -57 53 -96t121 -35v-142q-61 -20 -135 -20q-156 0 -215 113q-94 -111 -258 -111q-61 0 -125 20v136h8q68 0 114 33.5t46 99.5v344l-322 532q-63 104 -70 115q-53 68 -108 68q-12 0 -25 -5zM197 1358q47 -18 221 -322 q104 -184 209 -370l2 -58q2 -57 2 -106q0 -281 -53 -316q88 35 88 133v365l-324 549q-20 35 -63 76q-49 45 -82 49zM414 1772q0 63 45 107t108 44t107.5 -44t44.5 -107t-44 -108.5t-108 -45.5q-63 0 -108 45t-45 109zM471 1784q-10 -70 49 -103q-35 33 -16 93q27 78 76 98 q-92 6 -109 -88zM874 1772q0 63 45.5 107t108.5 44t107.5 -44t44.5 -107t-44 -108.5t-108 -45.5q-63 0 -108.5 45t-45.5 109zM932 1784q-10 -70 49 -103q-35 33 -16 93q26 78 75 98q-92 6 -108 -88z" />
<glyph unicode="&#x2c6;" horiz-adv-x="1411" d="M283 1534l458 457l457 -457l-457 190zM440 1626l289 207l4 68z" />
<glyph unicode="&#x2dc;" horiz-adv-x="1583" d="M442 1737q0 82 62.5 136t142.5 54q49 0 174 -62.5t199 -62.5q115 0 98 117q60 -45 60 -119q0 -88 -62.5 -157.5t-150.5 -69.5q-76 0 -183.5 64.5t-165.5 64.5q-84 0 -84 -94q0 -14 3 -29q-92 68 -93 158zM512 1753q12 29 53 56.5t72 27.5q43 0 153.5 -57.5t184.5 -57.5 q53 1 76 21q-6 -10 -27 -10q-63 0 -200.5 68.5t-180.5 68.5q-45 0 -85 -36t-46 -81z" />
<glyph unicode="&#x2000;" horiz-adv-x="1024" />
<glyph unicode="&#x2001;" horiz-adv-x="2048" />
<glyph unicode="&#x2002;" horiz-adv-x="1024" />
<glyph unicode="&#x2003;" horiz-adv-x="2048" />
<glyph unicode="&#x2004;" horiz-adv-x="682" />
<glyph unicode="&#x2005;" horiz-adv-x="512" />
<glyph unicode="&#x2006;" horiz-adv-x="341" />
<glyph unicode="&#x2007;" horiz-adv-x="341" />
<glyph unicode="&#x2008;" horiz-adv-x="256" />
<glyph unicode="&#x2009;" horiz-adv-x="409" />
<glyph unicode="&#x200a;" horiz-adv-x="113" />
<glyph unicode="&#x2010;" horiz-adv-x="628" d="M61 463v330l488 129v-328zM117 698l348 95v43l-348 -95v-43z" />
<glyph unicode="&#x2011;" horiz-adv-x="628" d="M61 463v330l488 129v-328zM117 698l348 95v43l-348 -95v-43z" />
<glyph unicode="&#x2012;" horiz-adv-x="628" d="M61 463v330l488 129v-328zM117 698l348 95v43l-348 -95v-43z" />
<glyph unicode="&#x2013;" horiz-adv-x="1164" d="M61 463v330l1024 129v-328zM179 698l730 95v43l-730 -95v-43z" />
<glyph unicode="&#x2014;" horiz-adv-x="2188" d="M61 463v330l2048 129v-328zM296 698l1460 95v43l-1460 -95v-43z" />
<glyph unicode="&#x2018;" horiz-adv-x="653" d="M102 1104q-4 113 74 225q92 133 256 184q-76 -86 -102 -210q166 -2 180 -199q0 -84 -59.5 -144.5t-145.5 -60.5q-82 0 -141.5 59.5t-61.5 145.5zM182 1143q-12 -84 41 -119q-29 47 -8 109q35 95 86 124q-100 -4 -119 -114z" />
<glyph unicode="&#x2019;" horiz-adv-x="653" d="M102 1310q0 84 59.5 143.5t143.5 59.5t142.5 -59.5t62.5 -143.5q2 -115 -74 -225q-92 -135 -258 -186q78 88 105 211q-166 2 -181 200zM176 1296q0 -68 68 -107q-31 29 -31 78q0 25 8 47q35 102 101 131q-55 4 -95.5 -28.5t-48.5 -89.5q-2 -16 -2 -31z" />
<glyph unicode="&#x201a;" horiz-adv-x="653" d="M102 184q0 84 59.5 143.5t143.5 59.5t142.5 -59.5t62.5 -143.5q2 -115 -74 -225q-92 -135 -258 -186q78 88 105 211q-166 2 -181 200zM176 170q0 -68 68 -107q-31 29 -31 78q0 25 8 47q35 102 101 131q-55 4 -95.5 -28.5t-48.5 -89.5q-2 -16 -2 -31z" />
<glyph unicode="&#x201c;" horiz-adv-x="1148" d="M102 1104q-4 113 74 225q92 133 256 184q-76 -86 -102 -210q166 -2 180 -199q0 -84 -59.5 -144.5t-145.5 -60.5q-82 0 -141.5 59.5t-61.5 145.5zM182 1133q-12 -84 41 -119q-29 47 -8 108q35 96 86 125q-100 -4 -119 -114zM614 1104q-4 113 74 225q92 133 256 184 q-76 -86 -102 -210q166 -2 180 -199q0 -84 -59.5 -144.5t-145.5 -60.5q-82 0 -141.5 59.5t-61.5 145.5zM694 1133q-12 -84 41 -119q-29 47 -8 108q35 96 86 125q-100 -4 -119 -114z" />
<glyph unicode="&#x201d;" horiz-adv-x="1148" d="M102 1310q0 84 59.5 143.5t143.5 59.5t142.5 -59.5t62.5 -143.5q2 -115 -74 -225q-92 -135 -258 -186q78 88 105 211q-166 2 -181 200zM176 1296q0 -68 68 -107q-31 29 -31 78q0 25 8 47q35 102 101 131q-55 4 -95.5 -28.5t-48.5 -89.5q-2 -16 -2 -31zM614 1310 q0 84 59.5 143.5t143.5 59.5t142.5 -59.5t62.5 -143.5q2 -115 -74 -225q-92 -135 -258 -186q78 88 105 211q-166 2 -181 200zM688 1296q0 -68 68 -107q-31 29 -31 78q0 25 8 47q35 102 101 131q-55 4 -95.5 -28.5t-48.5 -89.5q-2 -16 -2 -31z" />
<glyph unicode="&#x201e;" horiz-adv-x="1148" d="M102 184q0 84 59.5 143.5t143.5 59.5t142.5 -59.5t62.5 -143.5q2 -115 -74 -225q-92 -135 -258 -186q78 88 105 211q-166 2 -181 200zM176 170q0 -68 68 -107q-31 29 -31 78q0 25 8 47q35 102 101 131q-55 4 -95.5 -28.5t-48.5 -89.5q-2 -16 -2 -31zM614 184 q0 84 59.5 143.5t143.5 59.5t142.5 -59.5t62.5 -143.5q2 -115 -74 -225q-92 -135 -258 -186q78 88 105 211q-166 2 -181 200zM688 170q0 -68 68 -107q-31 29 -31 78q0 25 8 47q35 102 101 131q-55 4 -95.5 -28.5t-48.5 -89.5q-2 -16 -2 -31z" />
<glyph unicode="&#x202f;" horiz-adv-x="409" />
<glyph unicode="&#x2039;" horiz-adv-x="671" d="M33 504l678 555l-283 -555l283 -555zM162 504l35 -39l372 405z" />
<glyph unicode="&#x203a;" horiz-adv-x="671" d="M33 -51l282 555l-282 555l678 -555zM174 870l270 -405l35 39z" />
<glyph unicode="&#x205f;" horiz-adv-x="512" />
<glyph unicode="&#xe000;" horiz-adv-x="1515" d="M0 0v1516h1516v-1516h-1516z" />
</font>
</defs>
</svg>
